<svg width="24" height="24" viewBox="0 0 24 24" fill="none" xmlns="http://www.w3.org/2000/svg">
<path id="Vector" d="M-5.24537e-07 12C-2.34856e-07 18.6271 5.37288 24 12 24C18.6271 24 24 18.6271 24 12C24 5.37288 18.6271 -8.14217e-07 12 -5.24537e-07C5.37288 -2.34856e-07 -8.14217e-07 5.37288 -5.24537e-07 12ZM16.886 9.96288C16.9708 9.87356 17.0727 9.80213 17.1856 9.7528C17.2985 9.70348 17.4202 9.67725 17.5434 9.67567C17.6666 9.6741 17.7888 9.6972 17.903 9.74362C18.0171 9.79004 18.1208 9.85884 18.2079 9.94596C18.295 10.0331 18.3638 10.1368 18.4102 10.2509C18.4566 10.365 18.4797 10.4873 18.4782 10.6105C18.4766 10.7337 18.4504 10.8553 18.401 10.9682C18.3517 11.0811 18.2803 11.183 18.191 11.2679L12.6525 16.8063C12.4794 16.9793 12.2447 17.0765 12 17.0765C11.7553 17.0765 11.5206 16.9793 11.3475 16.8063L5.80904 11.2679C5.64324 11.0934 5.55217 10.861 5.55525 10.6203C5.55833 10.3796 5.65532 10.1496 5.82554 9.97938C5.99575 9.80916 6.22573 9.71218 6.46643 9.70909C6.70713 9.70601 6.93952 9.79708 7.11404 9.96288L12 14.8483L16.886 9.96288Z" fill="white"/>
</svg>
