<svg width="40" height="41" viewBox="0 0 40 41" fill="none" xmlns="http://www.w3.org/2000/svg">
<g id="SVG" clip-path="url(#clip0_1852_645)">
<path id="Vector" d="M34.1087 6.21321C30.365 2.46694 25.387 0.402676 20.0833 0.400391C9.15422 0.400391 0.260133 9.29164 0.255758 20.2202C0.254484 23.7136 1.16726 27.1237 2.90219 30.1295L0.0892944 40.4004L10.6001 37.6443C13.496 39.2237 16.7567 40.0559 20.0748 40.0572H20.0832H20.0833C31.0107 40.0572 39.9061 31.1644 39.9107 20.2363C39.9125 14.9398 37.8519 9.95974 34.1087 6.21321ZM20.0833 36.7096H20.0769C17.1193 36.708 14.2189 35.914 11.6891 34.4128L11.0871 34.0559L4.84975 35.6913L6.51504 29.6121L6.12278 28.9889C4.47301 26.3657 3.60206 23.3343 3.60331 20.2215C3.60693 11.138 10.9994 3.74817 20.0896 3.74817C24.4915 3.75 28.6288 5.46583 31.7405 8.57961C34.8519 11.6934 36.5642 15.8327 36.5629 20.2349C36.559 29.3187 29.1663 36.7096 20.0833 36.7096Z" fill="#E0E0E0"/>
<path id="Vector_2" d="M0.999481 39.2608L3.68389 29.4592C2.02778 26.5906 1.15687 23.3361 1.15791 20.0029C1.16225 9.57372 9.65014 1.08887 20.0791 1.08887C25.1408 1.09115 29.8915 3.06102 33.4634 6.63626C37.036 10.2115 39.0023 14.9637 39.0003 20.0177C38.9959 30.4471 30.5075 38.9328 20.0799 38.9328C20.0791 38.9328 20.0804 38.9328 20.0799 38.9328H20.0714C16.9049 38.9317 13.7934 38.1368 11.03 36.6307L0.999481 39.2608Z" fill="url(#paint0_linear_1852_645)"/>
<path id="Vector_3" fill-rule="evenodd" clip-rule="evenodd" d="M15.1837 11.8059C14.8169 10.9903 14.4307 10.974 14.0817 10.9597C13.7962 10.9475 13.4695 10.9483 13.1432 10.9483C12.8167 10.9483 12.2861 11.071 11.8373 11.561C11.3884 12.0511 10.1231 13.2357 10.1231 15.6451C10.1231 18.0548 11.8782 20.3831 12.1228 20.7101C12.3677 21.0366 15.5108 26.1391 20.4885 28.1021C24.6254 29.7335 25.4673 29.409 26.3652 29.3273C27.2632 29.2457 29.2626 28.1429 29.6708 26.9993C30.0789 25.8559 30.0789 24.8759 29.9565 24.671C29.834 24.4669 29.5075 24.3445 29.0177 24.0996C28.5279 23.8547 26.1203 22.6698 25.6713 22.5065C25.2224 22.3432 24.8958 22.2616 24.5693 22.7519C24.2428 23.2417 23.3048 24.3445 23.0191 24.671C22.7334 24.9983 22.4477 25.0391 21.9579 24.7942C21.4681 24.5486 19.8908 24.032 18.0197 22.3636C16.5638 21.0657 15.5809 19.4626 15.2952 18.9723C15.0095 18.4826 15.2646 18.2172 15.5102 17.9731C15.7301 17.7537 16 17.4014 16.2449 17.1155C16.4893 16.8295 16.5709 16.6254 16.7342 16.2989C16.8975 15.9718 16.8158 15.6859 16.6934 15.441C16.5709 15.1961 15.6192 12.7743 15.1837 11.8059Z" fill="white"/>
<path id="Vector_4" d="M33.9468 6.15041C30.246 2.44714 25.3252 0.406615 20.0824 0.404297C9.27873 0.404297 0.486751 9.19347 0.482408 19.9966C0.481134 23.4499 1.38342 26.8208 3.09844 29.7922L0.317871 39.9451L10.708 37.2206C13.5708 38.7818 16.7939 39.6045 20.074 39.6058H20.0823H20.0824C30.8843 39.6058 39.6776 30.8151 39.6822 20.0124C39.684 14.7768 37.647 9.85394 33.9468 6.15041ZM20.0824 36.2967H20.076C17.1524 36.2952 14.2853 35.5102 11.7846 34.0263L11.1894 33.6735L5.02367 35.2901L6.66982 29.2807L6.28207 28.6647C4.65124 26.0716 3.79028 23.0749 3.79156 19.9979C3.79512 11.0187 11.1027 3.71371 20.0886 3.71371C24.44 3.7155 28.5298 5.41164 31.6058 8.48968C34.6815 11.5677 36.3741 15.6595 36.3728 20.0112C36.3689 28.9907 29.0611 36.2967 20.0824 36.2967Z" fill="white"/>
</g>
<defs>
<linearGradient id="paint0_linear_1852_645" x1="19.9999" y1="39.2608" x2="19.9999" y2="1.08893" gradientUnits="userSpaceOnUse">
<stop stop-color="#25D366"/>
<stop offset="1" stop-color="#25D366"/>
</linearGradient>
<clipPath id="clip0_1852_645">
<rect width="40" height="40" fill="white" transform="translate(0 0.400391)"/>
</clipPath>
</defs>
</svg>
