<svg width="79" height="79" viewBox="0 0 79 79" fill="none" xmlns="http://www.w3.org/2000/svg">
<g id="Group 48095403">
<circle id="Ellipse 22" cx="39.0976" cy="39.0976" r="39.0976" fill="#15191F"/>
<g id="Group">
<path id="Vector" d="M44.3047 33.4141H34.6953C34.0314 33.4141 33.4941 33.9513 33.4941 34.6152V58.7989C33.4941 59.4628 34.0314 60 34.6953 60H44.3047C44.9686 60 45.5059 59.4628 45.5059 58.7989V34.6152C45.5059 33.9513 44.9686 33.4141 44.3047 33.4141Z" fill="white"/>
<path id="Vector_2" d="M29.8906 40.6211H20.2012C19.5372 40.6211 19 41.1583 19 41.8223V58.7988C19 59.4628 19.5372 60 20.2012 60H29.8906C30.5546 60 31.0918 59.4628 31.0918 58.7988V41.8223C31.0918 41.1583 30.5546 40.6211 29.8906 40.6211Z" fill="white"/>
<path id="Vector_3" d="M58.7988 47.8281H49.1094C48.4454 47.8281 47.9082 48.3654 47.9082 49.0293V58.7988C47.9082 59.4628 48.4454 60 49.1094 60H58.7988C59.4628 60 60 59.4628 60 58.7988V49.0293C60 48.3654 59.4628 47.8281 58.7988 47.8281Z" fill="white"/>
<path id="Vector_4" d="M45.2122 23.1501C45.0714 22.7173 44.6984 22.4006 44.248 22.3325L41.7177 21.9524L40.5741 19.6106C40.1658 18.7965 38.8333 18.7965 38.4251 19.6106L37.2814 21.9524L34.7512 22.3325C34.3007 22.4006 33.9277 22.7173 33.7869 23.1501C33.6462 23.5818 33.7623 24.0568 34.086 24.3771L35.9101 26.1718L35.4901 28.6961C35.415 29.1453 35.6004 29.5969 35.9688 29.8644C36.3347 30.1319 36.8227 30.167 37.2285 29.9595L39.4996 28.7806L41.7705 29.9595C42.1834 30.1729 42.6707 30.1273 43.0303 29.8645C43.3986 29.597 43.5839 29.1455 43.5089 28.6961L43.089 26.1718L44.913 24.3771C45.2368 24.0568 45.353 23.5818 45.2122 23.1501Z" fill="white"/>
<path id="Vector_5" d="M20.3371 29.5399C19.8867 29.608 19.5137 29.9247 19.3729 30.3575C19.2321 30.7892 19.3482 31.2642 19.672 31.5845L21.496 33.3792L21.0761 35.9035C21.001 36.3527 21.1863 36.8044 21.5547 37.0718C21.9206 37.3381 22.4074 37.3744 22.8145 37.1669L25.0855 35.988L27.3564 37.167C27.7693 37.3803 28.2566 37.3347 28.6162 37.0719C28.9846 36.8044 29.1699 36.3529 29.0949 35.9036L28.6749 33.3793L30.4989 31.5845C30.8227 31.2643 30.9388 30.7892 30.798 30.3576C30.6573 29.9248 30.2843 29.6081 29.8338 29.54L27.3037 29.1599L26.16 26.8713C25.7517 26.0572 24.4192 26.0572 24.011 26.8713L22.8673 29.1599L20.3371 29.5399Z" fill="white"/>
<path id="Vector_6" d="M59.6262 37.5645C59.4855 37.1317 59.1125 36.815 58.662 36.7469L56.1318 36.3669L54.9881 34.0783C54.5799 33.2643 53.2474 33.2643 52.8391 34.0783L51.6955 36.3669L49.1652 36.7469C48.7148 36.815 48.3418 37.1317 48.201 37.5645C48.0602 37.9962 48.1763 38.4713 48.5001 38.7915L50.3241 40.5862L49.9042 43.1105C49.8291 43.5597 50.0145 44.0114 50.3828 44.2789C50.7488 44.5474 51.2368 44.5815 51.6426 44.3739L53.9136 43.1951L56.1846 44.374C56.5974 44.5873 57.0847 44.5417 57.4444 44.2789C57.8127 44.0115 57.998 43.5599 57.923 43.1106L57.503 40.5863L59.3271 38.7916C59.6509 38.4713 59.767 37.9962 59.6262 37.5645Z" fill="white"/>
</g>
</g>
</svg>
