<svg width="79" height="79" viewBox="0 0 79 79" fill="none" xmlns="http://www.w3.org/2000/svg">
<g id="Group 48095404">
<circle id="Ellipse 23" cx="39.0976" cy="39.0976" r="39.0976" fill="#57C19D"/>
<g id="Group">
<g id="Group_2">
<path id="Vector" d="M29.0613 40.9521C28.8236 42.0335 28.6895 43.153 28.6895 44.3046C28.6895 45.8577 28.917 47.3838 29.3675 48.8395C29.4836 49.2184 29.7816 49.5163 30.1604 49.6325C31.6161 50.0829 33.1422 50.3105 34.6953 50.3105C35.8469 50.3105 36.9664 50.1763 38.0478 49.9386L29.0613 40.9521Z" fill="black"/>
<path id="Vector_2" d="M29.8701 38.364L40.6358 49.1297C41.4185 48.8063 42.1622 48.4121 42.8753 47.971L31.0285 36.125C30.5876 36.8379 30.1935 37.5814 29.8701 38.364Z" fill="black"/>
<path id="Vector_3" d="M32.459 34.1587L44.8416 46.5406C45.4507 46.0181 46.0183 45.4504 46.5407 44.8415L34.1581 32.4595C33.549 32.9819 32.9814 33.5498 32.459 34.1587Z" fill="black"/>
<path id="Vector_4" d="M49.9386 38.0478C50.1763 36.9664 50.3105 35.8469 50.3105 34.6953C50.3105 33.1422 50.0829 31.6161 49.6325 30.1604C49.5163 29.7816 49.2184 29.4836 48.8395 29.3675C47.3838 28.917 45.8577 28.6895 44.3046 28.6895C43.153 28.6895 42.0335 28.8236 40.9521 29.0613L49.9386 38.0478Z" fill="black"/>
<path id="Vector_5" d="M38.3645 29.8701C37.5819 30.1934 36.8379 30.5877 36.125 31.0288L47.9718 42.8746C48.4127 42.1619 48.8068 41.4182 49.1301 40.6358L38.3645 29.8701Z" fill="black"/>
</g>
<path id="Vector_6" d="M26.2871 44.3047C26.2871 34.3692 34.3692 26.2871 44.3047 26.2871C45.5831 26.2871 46.8336 26.4685 48.0623 26.7337C45.2902 22.1119 40.2398 19 34.6953 19C26.0853 19 19 26.0853 19 34.6953C19 40.2394 22.1118 45.2896 26.7331 48.0619C26.4683 46.8343 26.2871 45.584 26.2871 44.3047Z" fill="black"/>
<path id="Vector_7" d="M52.2666 30.938C52.5316 32.1656 52.7127 33.416 52.7127 34.6953C52.7127 44.6308 44.6305 52.7129 34.6951 52.7129C33.4168 52.7129 32.1664 52.5315 30.9375 52.2663C33.7096 56.8879 38.76 60 44.3045 60C52.9145 60 59.9998 52.9147 59.9998 44.3047C59.9998 38.7606 56.888 33.7103 52.2666 30.938Z" fill="black"/>
</g>
</g>
</svg>
