<svg width="79" height="79" viewBox="0 0 79 79" fill="none" xmlns="http://www.w3.org/2000/svg">
<g id="Group 500">
<circle id="Ellipse 22" cx="39.2392" cy="39.8974" r="39.0976" fill="#F6D27C"/>
<g id="Group">
<path id="Vector" d="M25.9524 52.8804C25.1795 53.2222 24.3258 53.4135 23.4277 53.4135C22.53 53.4135 21.6765 53.2222 20.9038 52.8807C18.5197 53.8732 16.8389 56.2267 16.8389 58.966V61.2701H27.9138V60.8262C27.9138 58.9756 28.3538 57.2262 29.1338 55.676C28.4122 54.429 27.2938 53.4391 25.9524 52.8804Z" fill="black"/>
<path id="Vector_2" d="M57.8961 52.895C57.1313 53.2283 56.2882 53.4144 55.402 53.4144C54.4923 53.4144 53.6281 53.2178 52.8472 52.8677C51.5114 53.4155 50.3954 54.3907 49.667 55.6216C50.4645 57.1856 50.9158 58.9544 50.9158 60.8271V61.2711H61.927V58.967C61.927 56.2405 60.2624 53.8956 57.8961 52.895Z" fill="black"/>
<path id="Vector_3" d="M26.7754 48.5431C27.5406 46.6969 26.6644 44.5799 24.8182 43.8147C22.972 43.0494 20.855 43.9257 20.0897 45.7719C19.3245 47.6181 20.2007 49.7351 22.0469 50.5004C23.8931 51.2656 26.0101 50.3893 26.7754 48.5431Z" fill="black"/>
<path id="Vector_4" d="M55.4029 50.7663C57.401 50.7663 59.0207 49.1466 59.0207 47.1485C59.0207 45.1505 57.401 43.5308 55.4029 43.5308C53.4049 43.5308 51.7852 45.1505 51.7852 47.1485C51.7852 49.1466 53.4049 50.7663 55.4029 50.7663Z" fill="black"/>
<path id="Vector_5" d="M39.4147 50.7659C42.2099 50.7659 44.4758 48.4999 44.4758 45.7047C44.4758 42.9095 42.2099 40.6436 39.4147 40.6436C36.6195 40.6436 34.3535 42.9095 34.3535 45.7047C34.3535 48.4999 36.6195 50.7659 39.4147 50.7659Z" fill="black"/>
<path id="Vector_6" d="M42.7823 52.6382C41.7643 53.1347 40.6215 53.4137 39.4148 53.4137C38.208 53.4137 37.0653 53.1347 36.0472 52.6382C32.8304 53.966 30.5605 57.1359 30.5605 60.8264V61.2704H48.269V60.8264C48.269 57.1359 45.9991 53.966 42.7823 52.6382Z" fill="black"/>
<path id="Vector_7" d="M42.2156 25.2227L39.4239 19.5664H39.4063L36.6146 25.2227L30.3727 26.1296L30.3691 26.1487L34.8839 30.5495L33.818 36.7636L33.8362 36.7746L39.4151 33.8416L44.994 36.7746L45.0121 36.7636L43.9463 30.5495L48.4611 26.1487L48.4576 26.1296L42.2156 25.2227Z" fill="black"/>
<path id="Vector_8" d="M20.2089 41.1076L20.2217 41.1127L23.4711 38.6155L27.3702 39.8764L27.3807 39.8674L26.0093 36.0042L28.4142 32.6846L28.4099 32.6728L24.3103 32.7833L21.8951 29.4688L21.8838 29.4708L20.7219 33.4039L16.8234 34.6765L16.8232 34.689L20.2033 37.0083L20.2089 41.1076Z" fill="black"/>
<path id="Vector_9" d="M51.4485 39.8674L51.459 39.8764L55.3581 38.6155L58.6075 41.1127L58.6204 41.1076L58.6259 37.0083L62.006 34.689L62.0058 34.6765L58.1073 33.4039L56.9454 29.4708L56.9341 29.4688L54.5189 32.7833L50.4194 32.6728L50.415 32.6846L52.8199 36.0042L51.4485 39.8674Z" fill="black"/>
</g>
</g>
</svg>
