<svg width="24" height="24" viewBox="0 0 24 24" fill="none" xmlns="http://www.w3.org/2000/svg">
<path id="Vector" d="M12 0C5.4 0 0 5.4 0 12C0 18.6 5.4 24 12 24C18.6 24 24 18.6 24 12C24 5.4 18.6 0 12 0ZM12.6 15C10.9431 16.6569 8.25686 16.6569 6.6 15L4.44659 12.8466C3.97903 12.379 3.97903 11.621 4.44659 11.1534C4.91369 10.6863 5.67084 10.6858 6.13859 11.1522L7.446 12.456C8.63611 13.6428 10.5626 13.6414 11.751 12.453L17.856 6.34801C18.3261 5.87794 19.0886 5.87929 19.557 6.35101C20.0231 6.82038 20.0217 7.57829 19.554 8.04601L12.6 15Z" fill="white"/>
</svg>
