<svg width="29" height="34" viewBox="0 0 29 34" fill="none" xmlns="http://www.w3.org/2000/svg">
<path d="M18.3845 3.99856L16.8377 5.46165L17.2034 7.528C17.2625 7.86499 16.9956 8.17633 16.6376 8.17633C16.4433 8.17633 16.5442 8.20136 14.4598 7.13761L12.5494 8.11254C12.1299 8.32666 11.6367 7.98162 11.7161 7.528L12.0819 5.46165L10.5351 3.99856C10.1946 3.67682 10.3853 3.11891 10.8535 3.05276L12.989 2.75182L13.9449 0.872691C14.155 0.460392 14.7642 0.459768 14.9746 0.872691L15.9305 2.75182L18.0661 3.05276C18.535 3.11905 18.7242 3.67752 18.3845 3.99856ZM8.47376 6.83743L8.406 6.45537C8.67125 6.20533 8.96849 6.00382 8.83819 5.61614C8.70797 5.22866 8.34232 5.234 7.97839 5.18283L7.80098 4.83523C7.59101 4.42376 6.98227 4.42348 6.77208 4.83523L6.59467 5.18283C6.22809 5.23435 5.86509 5.22839 5.73487 5.61614C5.60464 6.00361 5.90375 6.20713 6.16707 6.45537L6.0993 6.83743C6.01913 7.2896 6.51135 7.63582 6.93171 7.42218L7.28646 7.24176C7.64967 7.42648 7.72891 7.48591 7.90811 7.48591C8.26207 7.48591 8.53414 7.17762 8.47376 6.83743ZM3.45406 9.61105L3.38629 9.22899C3.65155 8.97895 3.94879 8.77744 3.81849 8.38976C3.68826 8.00229 3.32261 8.00762 2.95869 7.95645L2.78127 7.60885C2.57131 7.19738 1.96256 7.1971 1.75238 7.60885L1.57497 7.95645C1.20839 8.00797 0.84539 8.00201 0.715164 8.38976C0.584939 8.77724 0.884041 8.98075 1.14736 9.22899L1.07959 9.61105C0.999423 10.0632 1.49164 10.4094 1.912 10.1958L2.26675 10.0154C2.62997 10.2001 2.70921 10.2595 2.88841 10.2595C3.24237 10.2595 3.51444 9.95124 3.45406 9.61105ZM22.82 6.83743L22.7522 6.45537C23.0175 6.20533 23.3147 6.00382 23.1844 5.61614C23.0542 5.22866 22.6886 5.234 22.3246 5.18283C22.1606 4.86144 22.0544 4.52604 21.6328 4.52604C21.2115 4.52604 21.1038 4.86393 20.941 5.18283L20.5443 5.23858C20.0747 5.30459 19.8863 5.86431 20.2263 6.1848L20.5134 6.45537C20.4507 6.80859 20.3327 7.14038 20.6739 7.37995C21.0147 7.61946 21.3073 7.40727 21.6328 7.24176C21.9961 7.42648 22.0753 7.48591 22.2545 7.48591C22.6083 7.48591 22.8803 7.17762 22.82 6.83743ZM27.8397 9.61105L27.7719 9.22899C28.0372 8.97895 28.3344 8.77744 28.2041 8.38976C28.0739 8.00229 27.7083 8.00762 27.3443 7.95645C27.1803 7.63506 27.0741 7.29966 26.6526 7.29966C26.2313 7.29966 26.1235 7.63755 25.9607 7.95645L25.564 8.0122C25.0944 8.07821 24.9061 8.63793 25.246 8.95842L25.5331 9.22899C25.4704 9.58221 25.3524 9.914 25.6936 10.1536C26.0344 10.3931 26.327 10.1809 26.6526 10.0154C27.0158 10.2001 27.095 10.2595 27.2742 10.2595C27.628 10.2595 27.9 9.95124 27.8397 9.61105ZM6.00938 33.2757C6.0192 33.5881 5.75925 33.8462 5.43591 33.8462H2.4124C1.14507 33.8462 0.117676 32.8528 0.117676 31.6273V20.5328C0.117676 19.3074 1.14507 18.3139 2.4124 18.3139H5.42422C5.74104 18.3139 5.9979 18.5629 5.9979 18.8692C5.99726 29.316 5.97919 32.3186 6.00938 33.2757ZM4.06173 23.8612C4.06173 23.5548 3.80486 23.3064 3.48805 23.3064C3.17123 23.3064 2.91437 23.5548 2.91437 23.8612V26.2187C2.91437 26.5251 3.17123 26.7735 3.48805 26.7735C3.80486 26.7735 4.06173 26.5251 4.06173 26.2187V23.8612ZM28.8017 20.5328V31.6273C28.8017 32.8528 27.7743 33.8462 26.507 33.8462H23.484C23.1607 33.8462 22.9006 33.588 22.9105 33.2756C22.9408 32.3202 22.9221 29.3221 22.9215 18.8692C22.9215 18.5629 23.1783 18.3139 23.4952 18.3139H26.507C27.7744 18.3139 28.8017 19.3074 28.8017 20.5328ZM26.005 23.8612C26.005 23.5548 25.7481 23.3064 25.4313 23.3064C25.1145 23.3064 24.8576 23.5548 24.8576 23.8612V26.2187C24.8576 26.5251 25.1145 26.7735 25.4313 26.7735C25.7481 26.7735 26.005 26.5251 26.005 26.2187V23.8612ZM13.0255 33.8462H15.8939C16.2107 33.8462 16.4676 33.5978 16.4676 33.2915V28.0909C16.4676 27.7846 16.2107 27.5362 15.8939 27.5362H13.0255C12.7087 27.5362 12.4518 27.7846 12.4518 28.0909V33.2915C12.4518 33.5978 12.7087 33.8462 13.0255 33.8462ZM21.7741 12.628V33.2915C21.7741 33.5978 21.5173 33.8462 21.2004 33.8462H18.1886C17.8718 33.8462 17.6149 33.5978 17.6149 33.2915V26.9815C17.6149 26.6751 17.3581 26.4268 17.0413 26.4268H11.8781C11.5613 26.4268 11.3044 26.6751 11.3044 26.9815V33.2915C11.3044 33.5978 11.0476 33.8462 10.7308 33.8462H7.71894C7.40213 33.8462 7.14526 33.5978 7.14526 33.2915V12.628C7.14526 11.4025 8.17265 10.4091 9.43998 10.4091H19.4794C20.7468 10.4091 21.7741 11.4025 21.7741 12.628ZM17.3281 21.9196C17.3281 21.6133 17.0712 21.3649 16.7544 21.3649H12.165C11.8482 21.3649 11.5913 21.6133 11.5913 21.9196C11.5913 22.226 11.8482 22.4743 12.165 22.4743H16.7544C17.0713 22.4743 17.3281 22.226 17.3281 21.9196ZM18.332 16.5804C18.332 16.2741 18.0752 16.0257 17.7584 16.0257H11.161C10.8442 16.0257 10.5873 16.2741 10.5873 16.5804C10.5873 16.8867 10.8442 17.1351 11.161 17.1351H17.7584C18.0752 17.1351 18.332 16.8867 18.332 16.5804Z" fill="white"/>
</svg>
