<svg width="47" height="36" viewBox="0 0 47 36" fill="none" xmlns="http://www.w3.org/2000/svg">
<path d="M38.4673 25.4946H27.1217V14.417H31.9304C31.8759 11.3945 31.1087 8.31877 29.8058 5.92762C28.6043 3.72241 27.0395 2.35254 25.7221 2.35254C24.4047 2.35254 22.8399 3.72241 21.6384 5.92762C20.3356 8.3187 19.5684 11.3945 19.5138 14.417H24.3225V25.4946H15.3265L11.2178 22.4588C8.27275 20.2827 3.48094 20.2827 0.53597 22.4588C0.273496 22.6527 0.125977 22.9158 0.125977 23.19C0.125977 23.4643 0.273496 23.7274 0.53597 23.9213L10.6486 31.3935C10.6275 31.4327 10.6082 31.4727 10.5932 31.5146L9.60239 34.2857C9.40495 34.8379 9.85077 35.4039 10.5981 35.5497C10.7179 35.5731 10.8382 35.5843 10.9565 35.5843C11.5763 35.5843 12.143 35.2777 12.3088 34.814L13.2756 32.1098H40.3115V34.5499C40.3115 35.121 40.9381 35.5841 41.7111 35.5841C42.4841 35.5841 43.1107 35.121 43.1107 34.5499V32.1099H44.6208C45.3938 32.1099 46.0204 31.6468 46.0204 31.0757C46.0205 27.9983 42.6321 25.4946 38.4673 25.4946Z" fill="white"/>
<path d="M32.4019 5.15515C33.8329 7.78134 34.6741 11.1385 34.7294 14.417H42.0491C42.8221 14.417 43.4487 13.9539 43.4487 13.3828C43.4487 6.16023 35.4964 0.28418 25.7216 0.28418C28.3181 0.28418 30.6905 2.01408 32.4019 5.15515Z" fill="white"/>
<path d="M19.0414 5.15515C20.7529 2.01408 23.1253 0.28418 25.7218 0.28418C15.9469 0.28418 7.99458 6.16023 7.99458 13.3828C7.99458 13.9539 8.62124 14.417 9.3942 14.417H16.7139C16.7693 11.1385 17.6105 7.78141 19.0414 5.15515Z" fill="white"/>
</svg>
