<svg width="47" height="37" viewBox="0 0 47 37" fill="none" xmlns="http://www.w3.org/2000/svg">
<path d="M24.9367 2.93408C16.5179 2.93408 9.69305 9.49512 9.69305 17.5886C9.69305 25.682 16.5179 32.2431 24.9367 32.2431C33.3556 32.2431 40.1804 25.682 40.1804 17.5886C40.1804 9.49512 33.3556 2.93408 24.9367 2.93408ZM24.9366 28.7081C18.5589 28.7081 13.3702 23.7199 13.3702 17.5887C13.3702 11.4574 18.5589 6.46925 24.9366 6.46925C31.3144 6.46925 36.5031 11.4574 36.5031 17.5887C36.5031 23.7199 31.3145 28.7081 24.9366 28.7081Z" fill="white"/>
<path d="M24.5757 9.62045C19.9075 9.62045 16.1096 13.2715 16.1096 17.7593C16.1096 22.247 19.9075 25.8981 24.5757 25.8981C29.2438 25.8981 33.0417 22.247 33.0417 17.7593C33.0417 13.2715 29.2439 9.62045 24.5757 9.62045ZM45.8943 18.988V1.18016C45.8942 1.09636 45.8668 1.01469 45.8159 0.946648C45.7651 0.878609 45.6932 0.827639 45.6106 0.800921C45.528 0.774203 45.4387 0.773084 45.3554 0.797724C45.2721 0.822363 45.1989 0.871517 45.1462 0.938258C42.8351 3.86834 41.5841 7.44464 41.5842 11.1218V17.6365C41.5842 18.3836 42.2142 18.9894 42.9915 18.9894H43.5782C42.9998 24.7318 42.6177 32.7631 42.6177 33.7035C42.6177 35.185 43.5662 36.386 44.7363 36.386C45.9063 36.386 46.8549 35.1849 46.8549 33.7035C46.8549 32.763 46.4727 24.7304 45.8943 18.988ZM6.97642 15.458C8.14891 14.7752 8.93257 13.5373 8.93257 12.1232L8.35181 2.99477C8.34021 2.82119 8.25776 2.65905 8.12241 2.54363C7.98706 2.42821 7.80977 2.36886 7.62912 2.37849C7.44847 2.38812 7.27909 2.46595 7.15785 2.59505C7.0366 2.72414 6.9733 2.89405 6.98173 3.0678L7.3594 10.3889C7.3594 10.5865 7.27774 10.776 7.1324 10.9157C6.98705 11.0554 6.78992 11.1339 6.58437 11.1339C6.37881 11.1339 6.18168 11.0554 6.03633 10.9157C5.89099 10.776 5.80933 10.5865 5.80933 10.3889L5.62063 3.07082C5.61542 2.88511 5.53502 2.7087 5.39655 2.57912C5.25807 2.44954 5.07246 2.37703 4.87922 2.37703C4.68598 2.37703 4.50036 2.44954 4.36189 2.57912C4.22342 2.7087 4.14302 2.88511 4.13781 3.07082L3.94911 10.3889C3.94911 10.5865 3.86745 10.776 3.7221 10.9157C3.57676 11.0554 3.37962 11.1339 3.17407 11.1339C2.96852 11.1339 2.77139 11.0554 2.62604 10.9157C2.48069 10.776 2.39904 10.5865 2.39904 10.3889L2.77671 3.0678C2.79613 2.69124 2.48345 2.37552 2.09149 2.37552C1.91678 2.3755 1.74865 2.43956 1.6214 2.55463C1.49414 2.66971 1.41736 2.82713 1.40671 2.99477L0.825684 12.1233C0.825684 13.5374 1.60926 14.7752 2.78183 15.4581C3.15562 15.6759 3.45683 15.9919 3.64998 16.3689C3.84312 16.7458 3.92015 17.168 3.87197 17.5856C3.21003 23.3207 2.76053 32.6837 2.76053 33.7036C2.76053 35.1851 3.70907 36.3861 4.87913 36.3861C6.04919 36.3861 6.99773 35.185 6.99773 33.7036C6.99773 32.6837 6.54814 23.3207 5.88629 17.5856C5.8382 17.168 5.91527 16.7458 6.1084 16.3689C6.30154 15.992 6.6027 15.6759 6.97642 15.458Z" fill="white"/>
</svg>
