<svg width="27" height="31" viewBox="0 0 27 31" fill="none" xmlns="http://www.w3.org/2000/svg">
<path d="M11.6423 9.0306C11.6423 7.56626 10.8745 6.32886 9.96583 6.32886C9.05719 6.32886 8.28937 7.56626 8.28937 9.0306C8.28937 10.4949 9.05719 11.7323 9.96583 11.7323C10.8745 11.7323 11.6423 10.4949 11.6423 9.0306Z" fill="white"/>
<path d="M16.6717 30.6445H20.0246C20.1728 30.6445 20.315 30.5875 20.4198 30.4862C20.5246 30.3849 20.5834 30.2474 20.5834 30.1041V25.241H16.6717V30.6445Z" fill="white"/>
<path d="M9.40704 21.4585C9.40704 21.6018 9.46592 21.7392 9.57072 21.8405C9.67552 21.9419 9.81766 21.9988 9.96587 21.9988C10.1141 21.9988 10.2562 21.9419 10.361 21.8405C10.4658 21.7392 10.5247 21.6018 10.5247 21.4585V17.676H9.40704V21.4585Z" fill="white"/>
<path d="M16.1129 21.4585C16.1129 21.6018 16.1718 21.7392 16.2766 21.8405C16.3814 21.9419 16.5235 21.9988 16.6717 21.9988C16.8199 21.9988 16.9621 21.9419 17.0669 21.8405C17.1717 21.7392 17.2306 21.6018 17.2306 21.4585V17.676H16.1129V21.4585Z" fill="white"/>
<path d="M15.5541 25.241H11.0835V30.6445H15.5541V25.241Z" fill="white"/>
<path d="M21.3787 4.17277C20.567 4.13422 19.758 4.28974 19.0233 4.62558C18.947 4.65985 18.8638 4.67705 18.7797 4.6759C18.6956 4.67474 18.6129 4.65526 18.5377 4.61891C18.4625 4.58255 18.3968 4.53026 18.3454 4.46593C18.294 4.40159 18.2583 4.32687 18.2409 4.24734C18.003 3.15572 17.3841 2.17639 16.4881 1.47358C15.5921 0.770771 14.4734 0.387207 13.3196 0.387207C12.1659 0.387207 11.0472 0.770771 10.1512 1.47358C9.25521 2.17639 8.63634 3.15572 8.39838 4.24734C8.381 4.32687 8.34528 4.40159 8.29388 4.46593C8.24249 4.53026 8.17675 4.58255 8.10155 4.61891C8.02635 4.65526 7.94364 4.67474 7.85958 4.6759C7.77552 4.67705 7.69227 4.65985 7.61603 4.62558C6.95275 4.32339 6.22852 4.16691 5.4953 4.16737C5.41595 4.16737 5.3366 4.16737 5.25669 4.17277C3.98429 4.2471 2.78679 4.77944 1.90008 5.66495C1.01337 6.55045 0.501715 7.72492 0.465906 8.95701C0.455829 9.60181 0.578476 10.2421 0.826711 10.8406C1.07495 11.4392 1.44381 11.984 1.91184 12.4434C2.37987 12.9028 2.93772 13.2676 3.55292 13.5166C4.16812 13.7655 4.82839 13.8937 5.4953 13.8936C5.64351 13.8936 5.78565 13.9506 5.89045 14.0519C5.99525 14.1532 6.05412 14.2907 6.05412 14.434V24.1603H20.5835V14.434C20.5835 14.2907 20.6424 14.1532 20.7472 14.0519C20.852 13.9506 20.9941 13.8936 21.1423 13.8936C21.8092 13.8937 22.4695 13.7655 23.0847 13.5166C23.6999 13.2676 24.2577 12.9028 24.7258 12.4434C25.1938 11.984 25.5627 11.4392 25.8109 10.8406C26.0591 10.2421 26.1818 9.60181 26.1717 8.95701C26.1359 7.72457 25.6239 6.54981 24.7367 5.66425C23.8495 4.7787 22.6515 4.24658 21.3787 4.17277ZM11.0835 16.5954C11.2317 16.5954 11.3739 16.6523 11.4787 16.7536C11.5835 16.855 11.6423 16.9924 11.6423 17.1357V21.4585C11.6423 21.8884 11.4657 22.3008 11.1513 22.6048C10.8369 22.9088 10.4105 23.0796 9.96588 23.0796C9.52125 23.0796 9.09484 22.9088 8.78044 22.6048C8.46604 22.3008 8.28941 21.8884 8.28941 21.4585V17.1357C8.28941 16.9924 8.34829 16.855 8.45309 16.7536C8.55789 16.6523 8.70002 16.5954 8.84823 16.5954H9.40705V12.7395C8.11674 12.398 7.17177 10.8915 7.17177 9.0305C7.17177 6.90963 8.40118 5.24806 9.96588 5.24806C11.5306 5.24806 12.76 6.90963 12.76 9.0305C12.76 10.8915 11.815 12.398 10.5247 12.7395V16.5954H11.0835ZM19.4658 10.1112V11.7528C19.4656 12.0339 19.3499 12.3034 19.1444 12.5021C18.9388 12.7009 18.6601 12.8127 18.3694 12.8129H17.2306V16.5954H17.7894C17.9376 16.5954 18.0797 16.6523 18.1845 16.7536C18.2893 16.855 18.3482 16.9924 18.3482 17.1357V21.4585C18.3482 21.8884 18.1716 22.3008 17.8572 22.6048C17.5428 22.9088 17.1164 23.0796 16.6717 23.0796C16.2271 23.0796 15.8007 22.9088 15.4863 22.6048C15.1719 22.3008 14.9953 21.8884 14.9953 21.4585V17.1357C14.9953 16.9924 15.0541 16.855 15.1589 16.7536C15.2637 16.6523 15.4059 16.5954 15.5541 16.5954H16.1129V12.8129H14.974C14.6833 12.8127 14.4046 12.7009 14.1991 12.5021C13.9935 12.3034 13.8779 12.0339 13.8776 11.7528V6.32876C13.8776 6.18545 13.9365 6.04801 14.0413 5.94667C14.1461 5.84534 14.2882 5.78841 14.4365 5.78841C14.5847 5.78841 14.7268 5.84534 14.8316 5.94667C14.9364 6.04801 14.9953 6.18545 14.9953 6.32876V9.57085H16.1129V6.32876C16.1129 6.18545 16.1718 6.04801 16.2766 5.94667C16.3814 5.84534 16.5235 5.78841 16.6717 5.78841C16.8199 5.78841 16.9621 5.84534 17.0669 5.94667C17.1717 6.04801 17.2306 6.18545 17.2306 6.32876V9.57085H18.3482V6.32876C18.3482 6.18545 18.4071 6.04801 18.5119 5.94667C18.6167 5.84534 18.7588 5.78841 18.907 5.78841C19.0552 5.78841 19.1974 5.84534 19.3022 5.94667C19.407 6.04801 19.4658 6.18545 19.4658 6.32876V10.1112Z" fill="white"/>
<path d="M6.05408 30.1041C6.05408 30.2474 6.11295 30.3849 6.21775 30.4862C6.32255 30.5875 6.46469 30.6445 6.6129 30.6445H9.96583V25.241H6.05408V30.1041Z" fill="white"/>
<path d="M14.9952 11.7528L16.6158 11.7431C16.6342 11.7385 16.6529 11.7349 16.6717 11.7323C16.689 11.7347 16.7062 11.738 16.7231 11.742L18.3482 11.7323V10.6516H14.9952V11.7528Z" fill="white"/>
</svg>
