<svg width="55" height="55" viewBox="0 0 55 55" fill="none" xmlns="http://www.w3.org/2000/svg">
<g id="Link &#226;&#134;&#146; SVG" clip-path="url(#clip0_1852_297)">
<g id="Clip path group">
<mask id="mask0_1852_297" style="mask-type:luminance" maskUnits="userSpaceOnUse" x="0" y="0" width="55" height="55">
<g id="clip0_576_151">
<path id="Vector" d="M54.59 0.839844H0.590027V54.8398H54.59V0.839844Z" fill="white"/>
</g>
</mask>
<g mask="url(#mask0_1852_297)">
<g id="Group">
<path id="Vector_2" fill-rule="evenodd" clip-rule="evenodd" d="M25.7918 4.44012C11.8743 4.44012 0.59198 15.7224 0.59198 29.6398C0.59198 43.5574 11.8743 54.8398 25.7918 54.8398C39.7092 54.8398 50.9916 43.5574 50.9916 29.6398C50.9916 26.2562 50.3232 23.029 49.1136 20.0815L48.8887 20.3063C48.3012 20.8939 47.5283 21.2609 46.7013 21.3433L43.9582 21.6167C45.0434 24.07 45.6472 26.784 45.6472 29.6392C45.6472 40.6051 36.7576 49.4946 25.7918 49.4946C14.8261 49.4946 5.9365 40.6051 5.9365 29.6392C5.9365 18.6734 14.826 9.78412 25.7918 9.78412C28.6459 9.78412 31.3588 10.3875 33.8116 11.4718L34.0849 8.73122C34.1673 7.90403 34.5357 7.13021 35.1233 6.54265L35.3486 6.31736C32.4012 5.10837 29.1748 4.44012 25.7918 4.44012ZM34.9789 17.904L35.8758 8.90989C35.9183 8.49582 36.104 8.11002 36.396 7.81544L42.8446 1.36666C43.3435 0.870958 44.0812 0.707481 44.7393 0.951641C45.3974 1.19475 45.8591 1.79919 45.9122 2.49876L46.4217 9.00681L52.9339 9.51866C53.6291 9.57381 54.2343 10.0306 54.4784 10.6899C54.7225 11.349 54.558 12.0894 54.0644 12.5855L47.6159 19.0338C47.3239 19.3286 46.9365 19.5109 46.5225 19.5526L37.5264 20.4492L27.0653 30.9125C26.7152 31.2635 26.2534 31.4402 25.7917 31.4402C25.3299 31.4402 24.8682 31.2635 24.5179 30.9125C23.8172 30.2095 23.8172 29.07 24.5179 28.3669L34.9789 17.904ZM25.7918 22.44C26.436 22.44 27.0603 22.5252 27.6544 22.6839L23.2451 27.0938C21.8415 28.4977 21.842 30.7778 23.2433 32.1832C23.9192 32.8611 24.8347 33.2398 25.7918 33.2398C26.7479 33.2398 27.6622 32.8612 28.3384 32.1849L32.7472 27.775C32.9062 28.3699 32.9916 28.9949 32.9916 29.6398C32.9916 33.6162 29.768 36.8398 25.7917 36.8398C21.8153 36.8398 18.5917 33.6162 18.5917 29.6398C18.5919 25.6636 21.8154 22.44 25.7918 22.44ZM25.7918 13.384C28.5532 13.384 31.1533 14.0735 33.431 15.2884L33.2517 17.0858L30.4458 19.8919C29.0365 19.2178 27.4583 18.84 25.7918 18.84C19.8272 18.84 14.9919 23.6752 14.9919 29.6398C14.9919 35.6043 19.8272 40.4396 25.7918 40.4396C31.7563 40.4396 36.5915 35.6043 36.5915 29.6398C36.5915 27.9722 36.2133 26.3931 35.5384 24.9832L38.3449 22.1761L40.1412 21.997C41.3573 24.2751 42.0471 26.8766 42.0471 29.6392C42.0471 38.6169 34.7693 45.8947 25.7918 45.8947C16.8142 45.8947 9.53626 38.617 9.53626 29.6392C9.53626 20.6615 16.8142 13.384 25.7918 13.384Z" fill="#110D3C"/>
</g>
</g>
</g>
</g>
<defs>
<clipPath id="clip0_1852_297">
<rect width="54" height="54" fill="white" transform="translate(0.590027 0.839844)"/>
</clipPath>
</defs>
</svg>
