<svg width="55" height="55" viewBox="0 0 55 55" fill="none" xmlns="http://www.w3.org/2000/svg">
<g id="Link &#226;&#134;&#146; SVG" clip-path="url(#clip0_1852_281)">
<path id="Vector" d="M43.0767 21.6781C43.0767 33.4672 33.4924 43.0515 21.7033 43.0515C14.1214 43.0515 7.46192 39.0917 3.6597 33.1297C2.82727 31.8248 2.12982 30.4074 1.61236 28.945C0.779922 26.6727 0.329956 24.2204 0.329956 21.6781C0.329956 9.88897 9.91424 0.304688 21.7033 0.304688C28.2728 0.304688 34.1449 3.27446 38.0596 7.93161L34.7523 11.0139C31.6701 7.21166 26.968 4.80435 21.7033 4.80435C12.3891 4.80435 4.82961 12.3638 4.82961 21.6781V21.7681C4.82961 23.163 5.0096 24.4904 5.34708 25.7727C5.72955 27.3476 6.337 28.81 7.14694 30.1599C7.7319 31.1499 8.38434 32.0723 9.12679 32.9047C12.2091 36.3695 16.7087 38.5518 21.7033 38.5518C30.6127 38.5518 37.9246 31.6224 38.5096 22.8705L40.5569 20.9582L42.8742 18.8208C43.0092 19.7658 43.0767 20.7107 43.0767 21.6781Z" fill="#110D3C"/>
<path id="Vector_2" d="M52.0761 54.3011C51.5001 54.3011 50.9242 54.0806 50.4855 53.6418L33.8682 37.0246C32.9886 36.1449 32.9886 34.723 33.8682 33.8433C34.7479 32.9637 36.1698 32.9637 37.0495 33.8433L53.6667 50.4606C54.5465 51.3402 54.5465 52.7621 53.6667 53.6418C53.2281 54.0806 52.6521 54.3011 52.0761 54.3011Z" fill="#110D3C"/>
<path id="Vector_3" d="M53.606 4.19711L41.9969 15.0188L38.2621 18.4835L28.8579 27.2579C28.0254 28.0453 26.7205 28.0678 25.8431 27.3029L18.3062 20.7109L7.14703 30.1602C6.33709 28.8103 5.72963 27.3479 5.34717 25.7729L16.8663 16.0313C17.7213 15.3113 18.9812 15.3113 19.8136 16.0538L27.283 22.5782L36.6423 13.8713L40.062 10.6766L50.5462 0.912356C51.4461 0.0574205 52.8861 0.102417 53.7185 1.02485C54.5735 1.92478 54.5285 3.34217 53.606 4.19711Z" fill="#110D3C"/>
<path id="Vector_4" d="M52.076 12.6788C51.4911 12.6788 50.9151 12.4493 50.4854 12.0195L42.611 4.14515C41.9676 3.5017 41.7741 2.53427 42.1228 1.69283C42.4715 0.853646 43.2928 0.304688 44.2017 0.304688H52.076C53.3179 0.304688 54.3259 1.31261 54.3259 2.55451V10.4289C54.3259 11.3379 53.7769 12.159 52.9377 12.5078C52.6588 12.6225 52.3663 12.6788 52.076 12.6788Z" fill="#110D3C"/>
</g>
<defs>
<clipPath id="clip0_1852_281">
<rect width="54" height="54" fill="white" transform="translate(0.329956 0.300781)"/>
</clipPath>
</defs>
</svg>
