<svg width="55" height="55" viewBox="0 0 55 55" fill="none" xmlns="http://www.w3.org/2000/svg">
<g id="Link &#226;&#134;&#146; SVG" clip-path="url(#clip0_1852_306)">
<path id="Vector" d="M49.904 4.80078H18.0523C15.4346 4.80078 13.3063 7.13026 13.3063 9.99279C13.3063 12.8565 15.4346 15.1848 18.0523 15.1848H49.904C52.5206 15.1848 54.65 12.8565 54.65 9.99279C54.65 7.13026 52.5206 4.80078 49.904 4.80078Z" fill="#110D3C"/>
<path id="Vector_2" d="M49.904 22.1055H18.0523C15.4346 22.1055 13.3063 24.4349 13.3063 27.2975C13.3063 30.1611 15.4346 32.4895 18.0523 32.4895H49.904C52.5206 32.4895 54.65 30.1611 54.65 27.2975C54.65 24.4349 52.5206 22.1055 49.904 22.1055Z" fill="#110D3C"/>
<path id="Vector_3" d="M49.904 39.416H18.0523C15.4346 39.416 13.3063 41.7455 13.3063 44.608C13.3063 47.4717 15.4346 49.8 18.0523 49.8H49.904C52.5206 49.8 54.65 47.4717 54.65 44.608C54.65 41.7455 52.5206 39.416 49.904 39.416Z" fill="#110D3C"/>
<path id="Vector_4" d="M5.39612 4.80078C2.77838 4.80078 0.650024 7.13026 0.650024 9.99279C0.650024 12.8565 2.77838 15.1848 5.39612 15.1848C8.0128 15.1848 10.1422 12.8565 10.1422 9.99279C10.1422 7.13026 8.0128 4.80078 5.39612 4.80078Z" fill="#110D3C"/>
<path id="Vector_5" d="M5.39612 22.1055C2.77838 22.1055 0.650024 24.4349 0.650024 27.2975C0.650024 30.1611 2.77838 32.4895 5.39612 32.4895C8.0128 32.4895 10.1422 30.1611 10.1422 27.2975C10.1422 24.4349 8.0128 22.1055 5.39612 22.1055Z" fill="#110D3C"/>
<path id="Vector_6" d="M5.39612 39.416C2.77838 39.416 0.650024 41.7455 0.650024 44.608C0.650024 47.4717 2.77838 49.8 5.39612 49.8C8.0128 49.8 10.1422 47.4717 10.1422 44.608C10.1422 41.7455 8.0128 39.416 5.39612 39.416Z" fill="#110D3C"/>
</g>
<defs>
<clipPath id="clip0_1852_306">
<rect width="54" height="54" fill="white" transform="translate(0.650024 0.300781)"/>
</clipPath>
</defs>
</svg>
