<svg width="58" height="58" viewBox="0 0 58 58" fill="none" xmlns="http://www.w3.org/2000/svg">
<g id="Link &#226;&#134;&#146; SVG" clip-path="url(#clip0_1852_351)">
<path id="Vector" d="M53.6138 12.1421C54.0377 11.3413 54.2733 10.3992 54.2733 9.40991C54.2733 6.1595 51.6352 3.52148 48.3848 3.52148C45.1344 3.52148 42.4965 6.1595 42.4965 9.40991C42.4965 12.6603 45.1344 15.2983 48.3848 15.2983C49.374 15.2983 50.3162 15.0628 51.1171 14.6388L53.6138 17.1355C53.9576 17.4818 54.4098 17.6537 54.8621 17.6537C55.3143 17.6537 55.7666 17.4818 56.1104 17.1355C56.8006 16.4454 56.8006 15.3266 56.1104 14.6365L53.6138 12.1421ZM46.0294 9.40991C46.0294 8.11445 47.0894 7.05454 48.3848 7.05454C49.6803 7.05454 50.7402 8.11445 50.7402 9.40991C50.7402 10.7054 49.6803 11.7653 48.3848 11.7653C47.0894 11.7653 46.0294 10.7054 46.0294 9.40991Z" fill="#110D3C"/>
<path id="Vector_2" d="M4.22188 17.6537H33.664C35.9369 17.6537 37.7859 15.8047 37.7859 13.5318V7.64339C37.7859 5.37045 35.9369 3.52148 33.664 3.52148H4.22188C1.94894 3.52148 0.0999756 5.37045 0.0999756 7.64339V13.5318C0.0999756 15.8047 1.94894 17.6537 4.22188 17.6537Z" fill="#110D3C"/>
<path id="Vector_3" d="M54.8622 23.541H39.5524C38.5772 23.541 37.7858 24.3324 37.7858 25.3075C37.7858 26.2827 38.5772 27.0741 39.5524 27.0741H54.8622C55.8374 27.0741 56.6288 26.2827 56.6288 25.3075C56.6288 24.3324 55.8374 23.541 54.8622 23.541Z" fill="#110D3C"/>
<path id="Vector_4" d="M54.8622 30.6074H39.5524C38.5772 30.6074 37.7858 31.3988 37.7858 32.3739C37.7858 33.349 38.5772 34.1405 39.5524 34.1405H54.8622C55.8374 34.1405 56.6288 33.349 56.6288 32.3739C56.6288 31.3988 55.8374 30.6074 54.8622 30.6074Z" fill="#110D3C"/>
<path id="Vector_5" d="M54.8622 37.6738H39.5524C38.5772 37.6738 37.7858 38.4652 37.7858 39.4403C37.7858 40.4154 38.5772 41.2068 39.5524 41.2068H54.8622C55.8374 41.2068 56.6288 40.4154 56.6288 39.4403C56.6288 38.4652 55.8374 37.6738 54.8622 37.6738Z" fill="#110D3C"/>
<path id="Vector_6" d="M54.8622 44.7383H39.5524C38.5772 44.7383 37.7858 45.5297 37.7858 46.5048C37.7858 47.4799 38.5772 48.2712 39.5524 48.2712H54.8622C55.8374 48.2712 56.6288 47.4799 56.6288 46.5048C56.6288 45.5297 55.8374 44.7383 54.8622 44.7383Z" fill="#110D3C"/>
<path id="Vector_7" d="M54.8622 51.8066H39.5524C38.5772 51.8066 37.7858 52.5982 37.7858 53.5733C37.7858 54.5483 38.5772 55.3397 39.5524 55.3397H54.8622C55.8374 55.3397 56.6288 54.5483 56.6288 53.5733C56.6288 52.5982 55.8374 51.8066 54.8622 51.8066Z" fill="#110D3C"/>
<path id="Vector_8" d="M4.22188 55.3385H28.9532C31.2145 55.3385 33.0751 53.4778 33.0751 51.2166V27.6629C33.0751 25.4018 31.2145 23.541 28.9532 23.541H4.22188C1.96071 23.541 0.0999756 25.4018 0.0999756 27.6629V51.2166C0.0999756 53.4778 1.96071 55.3385 4.22188 55.3385ZM9.52145 45.917V32.9625C9.52145 32.3501 9.82766 31.7848 10.3694 31.4551C10.8876 31.1253 11.5235 31.1018 12.0653 31.3843L25.0199 37.8616C25.6322 38.1679 26.0091 38.7802 26.0091 39.4397C26.0091 40.0993 25.6322 40.7116 25.0199 41.0179L12.0653 47.4951C11.8297 47.6129 11.5471 47.6835 11.288 47.6835C10.9582 47.6835 10.652 47.5893 10.3694 47.4244C9.82766 47.0947 9.52145 46.5294 9.52145 45.917Z" fill="#110D3C"/>
</g>
<defs>
<clipPath id="clip0_1852_351">
<rect width="57" height="57" fill="white" transform="translate(0.0999756 0.929688)"/>
</clipPath>
</defs>
</svg>
