<svg width="55" height="55" viewBox="0 0 55 55" fill="none" xmlns="http://www.w3.org/2000/svg">
<g id="Link &#226;&#134;&#146; SVG" clip-path="url(#clip0_1852_289)">
<path id="Vector" fill-rule="evenodd" clip-rule="evenodd" d="M42.6452 32.4981H30.8172C31.7933 29.5695 32.312 27.1044 32.3975 25.0026C32.5993 20.0441 30.258 18.0816 28.2585 17.3073C28.1749 17.2745 28.0879 17.2512 27.999 17.2377C26.4499 16.993 25.8983 17.7219 25.5328 18.5455L25.4848 18.6535C25.4312 18.7719 25.3962 18.8977 25.3811 19.0268C24.8867 23.2567 23.0804 27.2257 20.2157 30.3769V54.0076C20.5353 54.1246 20.8618 54.222 21.1931 54.2992C21.2829 54.3204 21.3747 54.3317 21.4668 54.333C22.457 54.3436 23.6373 54.349 24.9984 54.349C26.3563 54.349 27.8937 54.3435 29.5999 54.333H40.7427C41.3942 54.3331 42.034 54.1602 42.5968 53.8318C43.1595 53.5035 43.6249 53.0316 43.9454 52.4643C44.2658 51.897 44.4299 51.2549 44.4207 50.6034C44.4115 49.9519 44.2294 49.3146 43.893 48.7566C44.6368 48.1932 45.1382 47.368 45.2956 46.4484C45.453 45.5287 45.2545 44.5837 44.7404 43.8051C45.4621 43.1931 45.9198 42.3262 46.0182 41.3851C46.1167 40.444 45.8482 39.5011 45.2687 38.7531C45.7768 38.2364 46.121 37.581 46.2578 36.8693C46.3947 36.1576 46.3181 35.4213 46.0377 34.7531C45.7574 34.0848 45.2858 33.5142 44.6822 33.1131C44.0786 32.712 43.37 32.4977 42.6452 32.4981ZM17.7429 11.2841C17.668 11.0532 17.5284 10.8488 17.3407 10.695C17.153 10.5413 16.9251 10.4447 16.684 10.4167L13.2288 10.0192L11.7838 6.85808C11.6834 6.63697 11.5215 6.44948 11.3173 6.31798C11.1132 6.18648 10.8755 6.11655 10.6326 6.11655C10.3898 6.11655 10.1521 6.18648 9.94796 6.31798C9.7438 6.44948 9.58184 6.63697 9.48143 6.85808L8.03648 10.0192L4.58138 10.4167C4.34033 10.4445 4.11232 10.5408 3.9245 10.6944C3.73668 10.848 3.59697 11.0523 3.52201 11.2831C3.44704 11.5138 3.43999 11.7613 3.50168 11.996C3.56337 12.2306 3.69122 12.4425 3.86998 12.6066L6.43101 14.9586L5.74155 18.3671C5.69393 18.6048 5.71547 18.8511 5.80364 19.0769C5.89179 19.3026 6.04288 19.4984 6.23894 19.6409C6.43501 19.7834 6.66784 19.8666 6.9098 19.8808C7.15177 19.8949 7.39271 19.8394 7.60405 19.7208L10.6323 18.0109L13.6612 19.7208C13.8725 19.8399 14.1136 19.896 14.3558 19.882C14.5979 19.8682 14.831 19.7849 15.0273 19.6424C15.2235 19.4997 15.3746 19.3037 15.4627 19.0776C15.5507 18.8515 15.5719 18.605 15.5237 18.3672L14.8343 14.9588L17.3953 12.6067C17.5739 12.4427 17.7016 12.231 17.7632 11.9964C17.8248 11.762 17.8178 11.5146 17.7429 11.2841ZM50.7166 11.2841C50.7915 11.5146 50.7986 11.7619 50.7371 11.9963C50.6754 12.2308 50.5478 12.4426 50.3693 12.6066L47.808 14.9586L48.4974 18.3671C48.5456 18.6048 48.5244 18.8514 48.4364 19.0775C48.3484 19.3035 48.1973 19.4995 48.0011 19.6421C47.8048 19.7847 47.5718 19.868 47.3296 19.8819C47.0874 19.8958 46.8463 19.8398 46.6351 19.7206L43.6068 18.0108L40.5783 19.7206C40.367 19.8398 40.126 19.8958 39.8838 19.8819C39.6416 19.8681 39.4085 19.7848 39.2122 19.6422C39.0159 19.4996 38.8648 19.3036 38.7768 19.0775C38.6889 18.8514 38.6676 18.6048 38.7158 18.3671L39.4053 14.9586L36.8442 12.6066C36.6655 12.4425 36.5376 12.2306 36.476 11.996C36.4142 11.7613 36.4213 11.5138 36.4963 11.2831C36.5713 11.0523 36.7109 10.848 36.8988 10.6944C37.0866 10.5408 37.3146 10.4445 37.5557 10.4167L41.0097 10.0192L42.4553 6.85808C42.5556 6.63699 42.7176 6.4495 42.9218 6.31801C43.1259 6.18652 43.3635 6.11659 43.6063 6.11659C43.8491 6.11659 44.0868 6.18652 44.2909 6.31801C44.495 6.4495 44.657 6.63699 44.7574 6.85808L46.203 10.0192L49.6572 10.4167C49.8983 10.4446 50.1263 10.5412 50.314 10.695C50.5016 10.8487 50.6418 11.0532 50.7166 11.2841ZM35.6389 6.53987C35.5638 6.3088 35.4242 6.10401 35.2365 5.94972C35.0488 5.79542 34.8209 5.69805 34.5797 5.66911L30.1316 5.16159L28.2705 1.086C28.169 0.866139 28.0066 0.679953 27.8026 0.549455C27.5985 0.418958 27.3615 0.349609 27.1193 0.349609C26.8771 0.349609 26.64 0.418958 26.436 0.549455C26.2321 0.679953 26.0697 0.866139 25.9681 1.086L24.1068 5.16127L19.6589 5.66879C19.418 5.69706 19.1903 5.79383 19.0027 5.94762C18.8153 6.10141 18.6758 6.30577 18.6009 6.53646C18.5259 6.76714 18.5188 7.01447 18.5803 7.24909C18.6417 7.48371 18.7692 7.69579 18.9475 7.86015L22.2452 10.8895L21.3573 15.277C21.3092 15.5148 21.3306 15.7613 21.4187 15.9872C21.5067 16.2132 21.6578 16.4091 21.8541 16.5516C22.0503 16.6941 22.2833 16.7773 22.5254 16.7912C22.7676 16.805 23.0085 16.749 23.2198 16.6299L27.1193 14.4303L31.0187 16.6302C31.2299 16.7492 31.4709 16.8052 31.713 16.7913C31.9551 16.7774 32.1881 16.6942 32.3843 16.5518C32.5805 16.4092 32.7317 16.2134 32.8197 15.9874C32.9078 15.7615 32.9291 15.515 32.8811 15.2773L31.9934 10.8897L35.2911 7.86015C35.4696 7.69655 35.5973 7.48509 35.659 7.25095C35.7207 7.01682 35.7136 6.7702 35.6389 6.53987ZM17.6845 32.7271C17.4616 32.3728 17.1525 32.0806 16.7861 31.8781C16.4197 31.6756 16.008 31.5693 15.5893 31.5692H6.85342C6.19671 31.5697 5.56705 31.8308 5.10262 32.2951C4.63818 32.7594 4.37691 33.389 4.37613 34.0457V51.8711C4.37669 52.528 4.63782 53.1579 5.10225 53.6226C5.56668 54.0873 6.19646 54.3487 6.85342 54.3496H15.5893C16.0079 54.3494 16.4195 54.2431 16.7858 54.0408C17.1522 53.8385 17.4614 53.5466 17.6845 53.1925V32.7271ZM7.57726 36.2182C7.57726 35.8825 7.7106 35.5606 7.94796 35.3232C8.18532 35.0859 8.50724 34.9525 8.84291 34.9525H9.77178C10.1075 34.9525 10.4294 35.0859 10.6667 35.3232C10.9041 35.5606 11.0374 35.8825 11.0374 36.2182C11.0374 36.5538 10.9041 36.8757 10.6667 37.1132C10.4294 37.3505 10.1075 37.4839 9.77178 37.4839H8.84301C8.6768 37.4839 8.51221 37.4511 8.35864 37.3875C8.20507 37.3239 8.06554 37.2307 7.948 37.1132C7.83046 36.9956 7.73723 36.8561 7.67361 36.7026C7.61 36.549 7.57726 36.3844 7.57726 36.2182Z" fill="#110D3C"/>
</g>
<defs>
<clipPath id="clip0_1852_289">
<rect width="54" height="54" fill="white" transform="translate(0.310059 0.349609)"/>
</clipPath>
</defs>
</svg>
