<svg width="58" height="58" viewBox="0 0 58 58" fill="none" xmlns="http://www.w3.org/2000/svg">
<g id="Link &#226;&#134;&#146; SVG" clip-path="url(#clip0_1852_366)">
<path id="Vector" d="M18.6802 28.273V25.7108C18.6802 25.0959 18.1819 24.5977 17.5672 24.5977H13.1147C12.5 24.5977 12.0017 25.0959 12.0017 25.7108V33.0745L15.6081 30.0146C16.5197 29.2412 17.5645 28.6546 18.6802 28.273Z" fill="#110D3C"/>
<path id="Vector_2" d="M32.0377 29.973V21.2595C32.0377 20.6448 31.5394 20.1465 30.9246 20.1465H26.4722C25.8575 20.1465 25.3591 20.6448 25.3591 21.2595V27.7607H26.7441C28.7574 27.7607 30.6453 28.5592 32.0377 29.973Z" fill="#110D3C"/>
<path id="Vector_3" d="M43.2817 32.0976L45.3948 29.9845V16.8065C45.3948 16.1917 44.8965 15.6934 44.2818 15.6934H39.8293C39.2146 15.6934 38.7163 16.1917 38.7163 16.8065V31.3293H40.3752C41.4316 31.3294 42.4231 31.6096 43.2817 32.0976Z" fill="#110D3C"/>
<path id="Vector_4" d="M13.6724 19.5518C13.9091 19.5518 14.1496 19.5012 14.3782 19.3944L40.8068 7.04584L40.3891 8.21236C40.0783 9.08059 40.5301 10.0363 41.3983 10.3471C41.5843 10.4138 41.7742 10.4452 41.9609 10.4452C42.6462 10.4452 43.2889 10.0202 43.5329 9.33793L45.3004 4.4009C45.4497 3.98404 45.4273 3.52489 45.2379 3.12451C45.0486 2.72413 44.7081 2.41546 44.2912 2.2662L39.3543 0.49871C38.4858 0.187488 37.5303 0.639739 37.2197 1.50784C36.9089 2.37606 37.3607 3.33177 38.2288 3.64254L39.3461 4.04248L12.9645 16.369C12.1291 16.7594 11.7682 17.7532 12.1586 18.5884C12.4423 19.1954 13.0441 19.5518 13.6724 19.5518Z" fill="#110D3C"/>
<path id="Vector_5" d="M53.4317 28.2266C52.4741 28.2266 51.5126 28.589 50.7729 29.3288L45.6042 34.4978C46.0341 35.3161 46.2787 36.2465 46.2787 37.2332C46.2787 40.4885 43.6305 43.1367 40.3752 43.1367H26.2461C25.324 43.1367 24.5764 42.3892 24.5764 41.4671C24.5764 40.545 25.324 39.7975 26.2461 39.7975H40.3751C41.7891 39.7975 42.9394 38.6472 42.9394 37.2332C42.9394 35.8192 41.7891 34.669 40.3751 34.669H33.4632C32.208 34.669 31.0405 34.1051 30.2603 33.1219L29.4982 32.1618C28.7494 31.4838 27.77 31.0997 26.744 31.0997H21.7516C20.2926 31.0997 18.8811 31.6179 17.7686 32.5618L11.0137 38.2931L18.1247 50.6098C18.161 50.6727 18.1947 50.7364 18.2284 50.8002H37.4604C39.0981 50.8002 40.6683 50.1477 41.8237 48.9871L56.1009 34.6446C57.432 33.3074 57.567 31.191 56.4166 29.6955C55.6694 28.7242 54.5533 28.2267 53.4317 28.2266Z" fill="#110D3C"/>
<path id="Vector_6" d="M15.233 52.2794L7.44 38.7814C7.0277 38.0673 6.27936 37.668 5.51 37.668C5.13231 37.668 4.74963 37.7641 4.39901 37.9666L1.31339 39.7481C0.248601 40.3629 -0.116162 41.7245 0.498602 42.7891L8.29162 56.2871C8.70391 57.0012 9.45225 57.4005 10.2216 57.4005C10.5993 57.4005 10.982 57.3044 11.3326 57.1019L14.4182 55.3204C15.4829 54.7057 15.8478 53.3442 15.233 52.2794Z" fill="#110D3C"/>
</g>
<defs>
<clipPath id="clip0_1852_366">
<rect width="57" height="57" fill="white" transform="translate(0.199951 0.400391)"/>
</clipPath>
</defs>
</svg>
