<svg width="58" height="58" viewBox="0 0 58 58" fill="none" xmlns="http://www.w3.org/2000/svg">
<g id="Link &#226;&#134;&#146; SVG" clip-path="url(#clip0_1852_386)">
<path id="Vector" fill-rule="evenodd" clip-rule="evenodd" d="M28.4248 14.0742C19.976 14.0742 13.1168 20.9334 13.1168 29.3813C13.1168 37.8302 19.976 44.6894 28.4248 44.6894C36.8737 44.6894 43.7329 37.8302 43.7329 29.3813C43.7329 20.9334 36.8737 14.0742 28.4248 14.0742ZM29.4207 19.7486C29.1961 19.4189 28.823 19.2222 28.4248 19.2222C28.0267 19.2222 27.6536 19.4189 27.429 19.7486L24.5822 23.9219L19.733 25.34C19.3513 25.4519 19.0486 25.745 18.9252 26.1238C18.8027 26.5027 18.8741 26.9182 19.118 27.2334L22.2068 31.2313L22.0573 36.2809C22.0458 36.6791 22.2318 37.057 22.5538 37.2913C22.8758 37.5255 23.2932 37.5853 23.6682 37.4513L28.4248 35.7488L33.1815 37.4513C33.5565 37.5853 33.9739 37.5255 34.2959 37.2913C34.6179 37.057 34.8039 36.6791 34.7924 36.2809L34.6429 31.2313L37.7317 27.2334C37.9756 26.9182 38.047 26.5027 37.9246 26.1238C37.8011 25.745 37.4984 25.4519 37.1166 25.34L32.2676 23.9219L29.4207 19.7486ZM28.4248 22.5656L30.5197 25.636C30.6768 25.8664 30.9092 26.0351 31.1772 26.1142L34.7452 27.1573L32.4719 30.0986C32.3013 30.3193 32.2126 30.5921 32.2213 30.8707L32.3312 34.5871L28.8307 33.3339C28.5685 33.2404 28.2812 33.2404 28.019 33.3339L24.5185 34.5871L24.6284 30.8707C24.6372 30.5921 24.5484 30.3193 24.3778 30.0986L22.1046 27.1573L25.6725 26.1142C25.9405 26.0351 26.1728 25.8664 26.33 25.636L28.4248 22.5656Z" fill="#110D3C"/>
<path id="Vector_2" fill-rule="evenodd" clip-rule="evenodd" d="M49.8066 22.2051C50.5633 24.459 50.974 26.872 50.974 29.3795C50.974 31.8879 50.5633 34.3009 49.8066 36.5539H54.4812C55.2813 36.5539 56.016 36.1143 56.3939 35.4086C56.7708 34.7039 56.7293 33.8479 56.2858 33.1817L53.7514 29.3795L56.2858 25.5773C56.7293 24.9121 56.7708 24.056 56.3939 23.3513C56.016 22.6457 55.2813 22.2051 54.4812 22.2051H49.8066ZM7.04348 22.2051H2.36883C1.56867 22.2051 0.834071 22.6457 0.456165 23.3513C0.0792237 24.056 0.120678 24.9121 0.564138 25.5773L3.09861 29.3795L0.564138 33.1817C0.120678 33.8479 0.0792237 34.7039 0.456165 35.4086C0.834071 36.1143 1.56867 36.5539 2.36883 36.5539H7.04348C6.28574 34.3009 5.87602 31.8879 5.87602 29.3795C5.87602 26.872 6.28574 24.459 7.04348 22.2051Z" fill="#110D3C"/>
<path id="Vector_3" fill-rule="evenodd" clip-rule="evenodd" d="M28.4249 8.26953C16.7735 8.26953 7.31433 17.7287 7.31433 29.3801C7.31433 41.0316 16.7735 50.4918 28.4249 50.4918C40.0764 50.4918 49.5356 41.0316 49.5356 29.3801C49.5356 17.7287 40.0764 8.26953 28.4249 8.26953ZM28.4249 12.1257C37.9477 12.1257 45.6794 19.8573 45.6794 29.3801C45.6794 38.9039 37.9477 46.6356 28.4249 46.6356C18.9021 46.6356 11.1705 38.9039 11.1705 29.3801C11.1705 19.8573 18.9021 12.1257 28.4249 12.1257Z" fill="#110D3C"/>
</g>
<defs>
<clipPath id="clip0_1852_386">
<rect width="57" height="57" fill="white" transform="translate(0.199951 0.880859)"/>
</clipPath>
</defs>
</svg>
