<svg width="58" height="58" viewBox="0 0 58 58" fill="none" xmlns="http://www.w3.org/2000/svg">
<g id="Link &#226;&#134;&#146; SVG" clip-path="url(#clip0_1852_377)">
<path id="Vector" d="M38.0902 12.6381L31.2782 11.6491L28.232 5.47656L25.1858 11.6491L18.3738 12.6381L23.3023 17.4436L22.1386 24.2282L28.232 21.0248L34.3254 24.2282L33.1617 17.4436L38.0902 12.6381Z" fill="#110D3C"/>
<path id="Vector_2" d="M49.9273 49.0275V34.2517H37.6153V35.9011V37.5484V49.0275H36.5625H34.9142H34.3186V34.2517V29.7968V28.1484H22.145V29.7968V34.2517V49.0275H21.5494H19.901H18.8483V37.5484V35.9011V34.2517H6.53622V49.0275H0.0999756V52.3242H6.53622H19.901H23.1977H33.2658H36.5625H49.9273H56.3635V49.0275H49.9273Z" fill="#110D3C"/>
</g>
<defs>
<clipPath id="clip0_1852_377">
<rect width="57" height="57" fill="white" transform="translate(0.0999756 0.400391)"/>
</clipPath>
</defs>
</svg>
