<svg width="58" height="58" viewBox="0 0 58 58" fill="none" xmlns="http://www.w3.org/2000/svg">
<g id="Link &#226;&#134;&#146; SVG" clip-path="url(#clip0_1852_394)">
<path id="Vector" d="M29.3406 9.55859C18.9756 9.55859 10.573 17.9612 10.573 28.3262C10.573 38.6913 18.9756 47.0939 29.3406 47.0939C39.7057 47.0939 48.1083 38.6913 48.1083 28.3262C48.1083 17.9612 39.7057 9.55859 29.3406 9.55859ZM29.3405 42.5667C21.4883 42.5667 15.1002 36.1785 15.1002 28.3264C15.1002 20.4742 21.4883 14.086 29.3405 14.086C37.1926 14.086 43.5809 20.4742 43.5809 28.3264C43.5809 36.1785 37.1928 42.5667 29.3405 42.5667Z" fill="#110D3C"/>
<path id="Vector_2" d="M29.3402 17.9023C23.5929 17.9023 18.9171 22.5782 18.9171 28.3255C18.9171 34.0729 23.5929 38.7487 29.3402 38.7487C35.0876 38.7487 39.7634 34.0729 39.7634 28.3255C39.7634 22.5782 35.0877 17.9023 29.3402 17.9023Z" fill="#110D3C"/>
<path id="Vector_3" d="M55.5872 29.8988V7.09274C55.5872 6.8727 55.4468 6.67713 55.238 6.60684C55.0295 6.53667 54.7994 6.60762 54.6662 6.78294C51.8208 10.5355 50.2807 15.1156 50.2807 19.8248V28.1679C50.2807 29.1248 51.0564 29.9005 52.0133 29.9005H52.7357C52.0237 37.2547 51.5532 47.5402 51.5532 48.7446C51.5532 50.6419 52.721 52.1799 54.1615 52.1799C55.6021 52.1799 56.7699 50.6418 56.7699 48.7446C56.7699 47.5401 56.2994 37.2529 55.5872 29.8988Z" fill="#110D3C"/>
<path id="Vector_4" d="M7.67262 25.3794C9.11616 24.505 10.081 22.9196 10.081 21.1086L9.36597 9.41805C9.33861 8.97244 8.96925 8.625 8.52275 8.625C8.03985 8.625 7.65514 9.02956 7.67915 9.51158L8.14412 18.8875C8.14412 19.4145 7.71677 19.8417 7.18993 19.8417C6.66296 19.8417 6.23572 19.4144 6.23572 18.8875L6.0034 9.51545C5.99112 9.02015 5.58612 8.62511 5.09059 8.62511C4.59506 8.62511 4.19018 9.02025 4.17779 9.51545L3.94546 18.8875C3.94546 19.4145 3.51811 19.8417 2.99125 19.8417C2.46429 19.8417 2.03705 19.4144 2.03705 18.8875L2.50203 9.51158C2.52594 9.02933 2.14099 8.625 1.6584 8.625C1.2119 8.625 0.842553 8.97244 0.815324 9.41805L0.0999756 21.1087C0.0999756 22.9197 1.0647 24.505 2.50834 25.3795C3.44782 25.9485 3.97158 27.0125 3.85049 28.1042C3.03553 35.449 2.48211 47.4399 2.48211 48.746C2.48211 50.6434 3.64994 52.1815 5.09048 52.1815C6.53103 52.1815 7.69885 50.6433 7.69885 48.746C7.69885 47.4399 7.14532 35.449 6.33047 28.1042C6.20927 27.013 6.73358 25.9482 7.67262 25.3794Z" fill="#110D3C"/>
</g>
<defs>
<clipPath id="clip0_1852_394">
<rect width="57" height="57" fill="white" transform="translate(0.0999756 0.880859)"/>
</clipPath>
</defs>
</svg>
