<svg width="58" height="58" viewBox="0 0 58 58" fill="none" xmlns="http://www.w3.org/2000/svg">
<g id="Link &#226;&#134;&#146; SVG" clip-path="url(#clip0_1852_339)">
<path id="Vector" d="M10.0961 36.9913C13.7656 36.9913 16.7402 34.0167 16.7402 30.3473C16.7402 26.6778 13.7656 23.7031 10.0961 23.7031C6.42668 23.7031 3.45203 26.6778 3.45203 30.3473C3.45203 34.0167 6.42668 36.9913 10.0961 36.9913Z" fill="#110D3C"/>
<path id="Vector_2" d="M47.014 36.9913C50.6835 36.9913 53.6582 34.0167 53.6582 30.3473C53.6582 26.6778 50.6835 23.7031 47.014 23.7031C43.3446 23.7031 40.37 26.6778 40.37 30.3473C40.37 34.0167 43.3446 36.9913 47.014 36.9913Z" fill="#110D3C"/>
<path id="Vector_3" d="M42.7214 38.0251C44.3822 40.6175 45.3461 43.6973 45.3461 46.9981V53.6699H55.4651C56.3863 53.6699 57.1331 52.9232 57.1331 52.0019V46.9981C57.1331 39.5477 49.2638 34.7611 42.7214 38.0251Z" fill="#110D3C"/>
<path id="Vector_4" d="M0.199951 47.1268V52.003C0.199951 52.9242 0.946757 53.671 1.86792 53.671H11.9869V46.9991C11.9869 43.6944 12.9529 40.6112 14.6174 38.0169C7.96601 34.7382 0.199951 39.6537 0.199951 47.1268Z" fill="#110D3C"/>
<path id="Vector_5" d="M28.6667 33.6543C21.2972 33.6543 15.3229 39.6285 15.3229 46.998V53.6699C15.3229 54.5911 16.0697 55.3379 16.9909 55.3379H40.3424C41.2636 55.3379 42.0105 54.5911 42.0105 53.6699V46.998C42.0105 39.6285 36.0362 33.6543 28.6667 33.6543Z" fill="#110D3C"/>
<path id="Vector_6" d="M25.8751 13.0407C26.5264 13.6922 27.5826 13.6923 28.234 13.0407L34.9058 6.36888C35.5573 5.71748 35.5573 4.66143 34.9058 4.01003C34.2545 3.35864 33.1984 3.35864 32.547 4.01003L27.0545 9.50243L24.7868 7.23477C24.1354 6.58338 23.0793 6.58338 22.4279 7.23477C21.7765 7.88617 21.7765 8.94222 22.4279 9.59362L25.8751 13.0407Z" fill="#110D3C"/>
<path id="Vector_7" d="M28.6666 33.6543C33.2726 33.6543 37.0065 29.9204 37.0065 25.3145C37.0065 20.7085 33.2726 16.9746 28.6666 16.9746C24.0606 16.9746 20.3268 20.7085 20.3268 25.3145C20.3268 29.9204 24.0606 33.6543 28.6666 33.6543Z" fill="#110D3C"/>
</g>
<defs>
<clipPath id="clip0_1852_339">
<rect width="57" height="57" fill="white" transform="translate(0.199951 0.929688)"/>
</clipPath>
</defs>
</svg>
