<svg width="55" height="55" viewBox="0 0 55 55" fill="none" xmlns="http://www.w3.org/2000/svg">
<g id="Link &#226;&#134;&#146; SVG" clip-path="url(#clip0_1852_316)">
<path id="Vector" fill-rule="evenodd" clip-rule="evenodd" d="M22.7026 36.7553L25.2774 39.3302C25.6611 39.7139 26.189 39.9173 26.7323 39.8941C27.273 39.8684 27.7802 39.616 28.1278 39.1989L32.4176 34.0492C33.0999 33.2304 32.9892 32.0124 32.1704 31.3301C31.3515 30.6478 30.1337 30.7586 29.4514 31.5773L26.5134 35.1023L25.4346 34.0234C24.6801 33.269 23.457 33.269 22.7026 34.0234C21.9508 34.7779 21.9508 36.001 22.7026 36.7553Z" fill="#110D3C"/>
<path id="Vector_2" fill-rule="evenodd" clip-rule="evenodd" d="M53.8947 20.0509H1.11005V47.7306C1.11005 49.6078 1.85676 51.4101 3.18281 52.7388C4.51143 54.0648 6.31384 54.8116 8.19091 54.8116H46.8139C48.6909 54.8116 50.4933 54.0648 51.822 52.7388C53.148 51.4101 53.8947 49.6078 53.8947 47.7306V20.0509ZM27.5024 22.6979C20.7511 22.6979 15.2718 28.1771 15.2718 34.9285C15.2718 41.6771 20.7511 47.159 27.5024 47.159C34.2536 47.159 39.733 41.6771 39.733 34.9285C39.733 28.1771 34.2536 22.6979 27.5024 22.6979ZM1.11005 16.1886H53.8947V11.7547C53.8947 9.87763 53.148 8.07523 51.822 6.74659C50.4933 5.42054 48.6909 4.67383 46.8139 4.67383H41.0204V11.111C41.0204 12.1769 40.1553 13.0421 39.0892 13.0421C38.0233 13.0421 37.1581 12.1769 37.1581 11.111V4.67383H17.8466V11.111C17.8466 12.1769 16.9815 13.0421 15.9155 13.0421C14.8495 13.0421 13.9844 12.1769 13.9844 11.111V4.67383H8.19091C6.31384 4.67383 4.51143 5.42054 3.18281 6.74659C1.85676 8.07523 1.11005 9.87763 1.11005 11.7547V16.1886Z" fill="#110D3C"/>
<path id="Vector_3" fill-rule="evenodd" clip-rule="evenodd" d="M37.1579 4.67284H41.0202V2.74169C41.0202 1.6757 40.1551 0.810547 39.089 0.810547C38.0231 0.810547 37.1579 1.6757 37.1579 2.74169V4.67284Z" fill="#110D3C"/>
<path id="Vector_4" fill-rule="evenodd" clip-rule="evenodd" d="M13.9843 4.67284H17.8465V2.74169C17.8465 1.6757 16.9813 0.810547 15.9154 0.810547C14.8494 0.810547 13.9843 1.6757 13.9843 2.74169V4.67284Z" fill="#110D3C"/>
</g>
<defs>
<clipPath id="clip0_1852_316">
<rect width="54" height="54" fill="white" transform="translate(0.660034 0.810547)"/>
</clipPath>
</defs>
</svg>
