<svg width="55" height="55" viewBox="0 0 55 55" fill="none" xmlns="http://www.w3.org/2000/svg">
<g id="Link &#226;&#134;&#146; SVG" clip-path="url(#clip0_1852_273)">
<path id="Vector" d="M49.9909 48.6539H45.5622V20.3105H47.3337L42.9051 14.9961L38.4764 20.3105H40.2478V48.6539H34.9335V32.7107H36.7049L32.2763 27.3963L27.8476 32.7107H29.6191V48.6539H24.3047V37.1393H26.0762L21.6476 31.8249L17.2189 37.1393H18.9903V48.6539H13.6759V41.568H15.4474L11.0188 36.2536L6.59012 41.568H8.36158V48.6539H3.93294C2.99329 48.6539 2.09214 49.0271 1.42771 49.6915C0.763285 50.356 0.390015 51.2571 0.390015 52.1968V53.9682H53.5339V52.1968C53.5339 51.2571 53.1606 50.356 52.4961 49.6915C51.8317 49.0271 50.9305 48.6539 49.9909 48.6539Z" fill="#110D3C"/>
<path id="Vector_2" d="M18.1045 16.7675C18.6301 16.7675 19.1439 16.6117 19.5808 16.3198C20.0178 16.0277 20.3583 15.6128 20.5594 15.1272C20.7606 14.6417 20.8132 14.1074 20.7107 13.592C20.6081 13.0765 20.3551 12.6031 19.9835 12.2314C19.6118 11.8598 19.1384 11.6068 18.6229 11.5042C18.1075 11.4017 17.5732 11.4543 17.0877 11.6555C16.6022 11.8566 16.1872 12.1971 15.8952 12.6341C15.6032 13.071 15.4474 13.5848 15.4474 14.1104C15.4474 14.8151 15.7273 15.4909 16.2257 15.9892C16.724 16.4876 17.3998 16.7675 18.1045 16.7675ZM18.1045 12.3389C18.4549 12.3389 18.7974 12.4428 19.0887 12.6374C19.3801 12.8321 19.6071 13.1088 19.7412 13.4324C19.8753 13.7561 19.9103 14.1123 19.842 14.456C19.7737 14.7996 19.605 15.1152 19.3572 15.363C19.1095 15.6107 18.7938 15.7794 18.4501 15.8478C18.1065 15.9161 17.7503 15.881 17.4267 15.7469C17.1029 15.6129 16.8263 15.3858 16.6316 15.0945C16.437 14.8032 16.3331 14.4607 16.3331 14.1104C16.3331 13.6405 16.5197 13.1899 16.852 12.8577C17.1842 12.5256 17.6347 12.3389 18.1045 12.3389Z" fill="#110D3C"/>
<path id="Vector_3" d="M18.1045 19.4263C21.9251 19.4203 25.6359 18.1471 28.6553 15.8064L30.8334 14.1119L28.6553 12.4175C25.6389 10.0709 21.9262 8.79688 18.1045 8.79688C14.2828 8.79688 10.5702 10.0709 7.55374 12.4175L5.37573 14.1119L7.55374 15.8064C10.5733 18.1471 14.2839 19.4203 18.1045 19.4263ZM18.1045 9.68328C18.9804 9.68328 19.8367 9.94302 20.565 10.4296C21.2933 10.9163 21.8609 11.6079 22.1961 12.4172C22.5313 13.2264 22.619 14.1169 22.4481 14.9759C22.2772 15.835 21.8554 16.6241 21.2361 17.2435C20.6167 17.8628 19.8276 18.2846 18.9685 18.4555C18.1095 18.6264 17.219 18.5387 16.4098 18.2034C15.6006 17.8683 14.9088 17.3007 14.4222 16.5724C13.9356 15.8441 13.6759 14.9878 13.6759 14.1119C13.6773 12.9378 14.1443 11.8122 14.9746 10.982C15.8048 10.1517 16.9305 9.6847 18.1045 9.68328Z" fill="#110D3C"/>
<path id="Vector_4" d="M3.93282 22.9685H14.5616C14.7074 22.9685 14.8509 23.0044 14.9795 23.0732C15.108 23.1419 15.2176 23.2413 15.2985 23.3626L18.1045 27.5742L20.9105 23.3653C20.9911 23.2435 21.1006 23.1435 21.2291 23.0743C21.3577 23.0051 21.5014 22.9687 21.6474 22.9685H32.2762C32.9809 22.9685 33.6568 22.6885 34.1551 22.1902C34.6534 21.6919 34.9334 21.016 34.9334 20.3112V4.36813C34.9334 3.66339 34.6534 2.98753 34.1551 2.48921C33.6568 1.99089 32.9809 1.71094 32.2762 1.71094H3.93282C3.22809 1.71094 2.55222 1.99089 2.05391 2.48921C1.55558 2.98753 1.27563 3.66339 1.27563 4.36813V20.3112C1.27563 21.016 1.55558 21.6919 2.05391 22.1902C2.55222 22.6885 3.22809 22.9685 3.93282 22.9685ZM18.1045 3.4824C21.74 3.48668 25.3167 4.40011 28.5092 6.13959L27.6606 7.69493C24.7293 6.09609 21.4435 5.2583 18.1045 5.2583C14.7654 5.2583 11.4798 6.09609 8.54836 7.69493L7.69983 6.13959C10.8922 4.40011 14.4689 3.48668 18.1045 3.4824ZM3.38899 13.4114L6.46689 11.0199C9.79418 8.43188 13.8892 7.02675 18.1045 7.02675C22.3198 7.02675 26.4149 8.43188 29.7421 11.0199L32.82 13.4114C32.9267 13.4943 33.013 13.6003 33.0724 13.7216C33.1318 13.8429 33.1627 13.9761 33.1627 14.1112C33.1627 14.2462 33.1318 14.3794 33.0724 14.5008C33.013 14.622 32.9267 14.7281 32.82 14.8109L29.7421 17.2023C26.4149 19.7904 22.3198 21.1955 18.1045 21.1955C13.8892 21.1955 9.79418 19.7904 6.46689 17.2023L3.38899 14.8109C3.2823 14.7281 3.19596 14.622 3.13657 14.5008C3.07718 14.3794 3.0463 14.2462 3.0463 14.1112C3.0463 13.9761 3.07718 13.8429 3.13657 13.7216C3.19596 13.6003 3.2823 13.4943 3.38899 13.4114Z" fill="#110D3C"/>
</g>
<defs>
<clipPath id="clip0_1852_273">
<rect width="54" height="54" fill="white" transform="translate(0.390015 0.839844)"/>
</clipPath>
</defs>
</svg>
