<svg width="46" height="46" viewBox="0 0 46 46" fill="none" xmlns="http://www.w3.org/2000/svg">
<g id="SVG" clip-path="url(#clip0_1852_464)">
<path id="Vector" d="M3.6043 24.906H0.390015V44.1917H3.6043C4.03054 44.1917 4.43933 44.0223 4.74073 43.721C5.04211 43.4196 5.21144 43.0107 5.21144 42.5846V26.5131C5.21144 26.0869 5.04211 25.6781 4.74073 25.3767C4.43933 25.0753 4.03054 24.906 3.6043 24.906ZM43.5483 27.0563C42.9842 26.7158 42.3407 26.529 41.682 26.5148C41.0233 26.5004 40.3723 26.6588 39.7939 26.9743L29.2688 32.6315C29.1509 33.6019 28.6825 34.4958 27.9517 35.1452C27.221 35.7945 26.2783 36.1545 25.3008 36.1576H18.84C18.6269 36.1576 18.4225 36.0729 18.2718 35.9222C18.1211 35.7715 18.0364 35.5672 18.0364 35.354C18.0364 35.1409 18.1211 34.9365 18.2718 34.7858C18.4225 34.6351 18.6269 34.5504 18.84 34.5504H25.3008C26.6299 34.5504 27.7114 33.4688 27.7114 32.1398C27.7096 31.5144 27.4649 30.9142 27.0289 30.4659C26.5928 30.0176 25.9997 29.7562 25.3747 29.7371C24.8925 29.7323 17.1268 29.729 17.1268 29.729L14.3834 26.9873C14.0821 26.6858 13.6733 26.5164 13.2472 26.5163H6.81859V42.5877H9.6568L14.8543 44.1917C17.0143 44.886 19.3238 45.7988 21.8839 45.7988C24.1983 45.7988 26.4772 45.0323 28.4459 43.5231L43.7508 33.3933C44.2556 33.0481 44.6685 32.5851 44.9542 32.0444C45.2398 31.5037 45.3895 30.9015 45.39 30.2899C45.39 28.9512 44.7022 27.7426 43.5483 27.0563ZM1.16948 18.2476L9.2293 23.2988V12.5149L0.390015 7.46365V16.8702C0.390067 17.1476 0.461878 17.4201 0.598465 17.6616C0.735051 17.9029 0.931764 18.1048 1.16948 18.2476ZM19.0489 5.97061C18.9975 5.93044 10.8605 1.02865 10.8605 1.02865C10.6107 0.878303 10.3245 0.798866 10.0329 0.798866C9.74123 0.798866 9.4551 0.878303 9.20519 1.02865C9.20519 1.02865 1.06823 5.93044 1.0168 5.97061L10.0329 11.1231L19.0489 5.97061ZM10.8364 23.2988L18.8963 18.2476C19.134 18.1048 19.3307 17.9029 19.4673 17.6616C19.6039 17.4201 19.6757 17.1476 19.6758 16.8702V7.46365L10.8364 12.5149V23.2988ZM42.1758 23.2988C42.6019 23.2988 43.0108 23.1295 43.3121 22.8281C43.6135 22.5267 43.7828 22.1179 43.7828 21.6917V8.83455H24.4972V21.6917C24.4972 22.1179 24.6665 22.5267 24.9679 22.8281C25.2693 23.1295 25.6781 23.2988 26.1043 23.2988H42.1758ZM43.7828 0.798828H24.4972C24.0709 0.798828 23.6621 0.968152 23.3607 1.26955C23.0593 1.57095 22.89 1.97973 22.89 2.40597V5.62025C22.89 6.0465 23.0593 6.45528 23.3607 6.75668C23.6621 7.05808 24.0709 7.2274 24.4972 7.2274H43.7828C44.2091 7.2274 44.6179 7.05808 44.9193 6.75668C45.2207 6.45528 45.39 6.0465 45.39 5.62025V2.40597C45.39 1.97973 45.2207 1.57095 44.9193 1.26955C44.6179 0.968152 44.2091 0.798828 43.7828 0.798828Z" fill="#110D3C"/>
</g>
<defs>
<clipPath id="clip0_1852_464">
<rect width="45" height="45" fill="white" transform="translate(0.390015 0.798828)"/>
</clipPath>
</defs>
</svg>
