<svg width="46" height="46" viewBox="0 0 46 46" fill="none" xmlns="http://www.w3.org/2000/svg">
<g id="SVG" clip-path="url(#clip0_1852_488)">
<path id="Vector" d="M29.8518 10.9336H33.8069V20.1621C33.8069 32.54 23.7726 42.6621 11.3948 42.6621H0.76001V45.2988H16.6682C30.5023 45.2988 41.717 33.9962 41.717 20.1621V10.9336H45.76L37.7619 0.298828L29.8518 10.9336Z" fill="#110D3C"/>
<path id="Vector_2" d="M0.76001 32.1152H4.80298V40.0254H0.76001V32.1152Z" fill="#110D3C"/>
<path id="Vector_3" d="M7.4397 24.2051H11.3948V40.0254H7.4397V24.2051Z" fill="#110D3C"/>
<path id="Vector_4" d="M14.0315 39.8287C15.3998 39.6451 16.721 39.3214 17.9865 38.8718V16.207H14.0315V39.8287Z" fill="#110D3C"/>
<path id="Vector_5" d="M24.5784 34.9483V8.29688H20.6232V37.727C22.0586 36.966 23.3793 36.025 24.5784 34.9483Z" fill="#110D3C"/>
</g>
<defs>
<clipPath id="clip0_1852_488">
<rect width="45" height="45" fill="white" transform="translate(0.76001 0.298828)"/>
</clipPath>
</defs>
</svg>
