<svg width="46" height="46" viewBox="0 0 46 46" fill="none" xmlns="http://www.w3.org/2000/svg">
<g id="SVG" clip-path="url(#clip0_1852_474)">
<g id="Clip path group">
<mask id="mask0_1852_474" style="mask-type:luminance" maskUnits="userSpaceOnUse" x="0" y="0" width="46" height="46">
<g id="clip0_576_276">
<path id="Vector" d="M45.08 0.798828H0.0800171V45.7988H45.08V0.798828Z" fill="white"/>
</g>
</mask>
<g mask="url(#mask0_1852_474)">
<g id="Group">
<path id="Vector_2" fill-rule="evenodd" clip-rule="evenodd" d="M21.0812 3.79907C9.48341 3.79907 0.0814819 13.2009 0.0814819 24.7989C0.0814819 36.3969 9.48341 45.7987 21.0812 45.7987C32.6792 45.7987 42.0811 36.3969 42.0811 24.7989C42.0811 21.9792 41.5242 19.2898 40.5162 16.8335L40.3288 17.0209C39.8391 17.5105 39.1951 17.8164 38.5059 17.885L36.22 18.1128C37.1243 20.1573 37.6275 22.419 37.6275 24.7983C37.6275 33.9365 30.2195 41.3444 21.0813 41.3444C11.9432 41.3444 4.53525 33.9365 4.53525 24.7983C4.53525 15.6602 11.9431 8.25239 21.0812 8.25239C23.4598 8.25239 25.7205 8.75521 27.7645 9.65882L27.9922 7.37498C28.0609 6.68565 28.368 6.0408 28.8576 5.55117L29.0453 5.36343C26.5891 4.35594 23.9005 3.79907 21.0812 3.79907ZM28.7373 15.0191L29.4846 7.52386C29.5201 7.1788 29.6749 6.8573 29.9181 6.61183L35.292 1.23784C35.7077 0.824756 36.3225 0.688526 36.8709 0.891993C37.4194 1.09458 37.8041 1.59828 37.8483 2.18126L38.2729 7.60464L43.6998 8.03117C44.2792 8.07714 44.7834 8.45779 44.9868 9.0072C45.1903 9.55642 45.0532 10.1734 44.6419 10.5869L39.2681 15.9605C39.0247 16.2062 38.702 16.358 38.3569 16.3928L30.8602 17.14L22.1427 25.8594C21.8507 26.1519 21.466 26.2992 21.0812 26.2992C20.6964 26.2992 20.3116 26.1519 20.0198 25.8594C19.4359 25.2735 19.4359 24.3239 20.0198 23.738L28.7373 15.0191ZM21.0812 18.7991C21.6181 18.7991 22.1384 18.8699 22.6335 19.0022L18.959 22.6772C17.7895 23.847 17.7898 25.7472 18.9576 26.9183C19.5208 27.4833 20.2837 27.7988 21.0812 27.7988C21.8781 27.7988 22.64 27.4833 23.2035 26.9196L26.8774 23.2448C27.01 23.7406 27.0811 24.2614 27.0811 24.7989C27.0811 28.1125 24.3948 30.7988 21.0812 30.7988C17.7675 30.7988 15.0813 28.1125 15.0813 24.7989C15.0814 21.4853 17.7676 18.7991 21.0812 18.7991ZM21.0812 11.2523C23.3825 11.2523 25.5493 11.8269 27.4473 12.8393L27.2979 14.3372L24.9597 16.6756C23.7853 16.1138 22.47 15.7989 21.0812 15.7989C16.1107 15.7989 12.0814 19.8283 12.0814 24.7988C12.0814 29.7693 16.1107 33.7986 21.0812 33.7986C26.0518 33.7986 30.0811 29.7693 30.0811 24.7988C30.0811 23.4091 29.7659 22.0933 29.2035 20.9182L31.5421 18.5791L33.0392 18.4298C34.0525 20.3283 34.6275 22.4961 34.6275 24.7983C34.6275 32.2797 28.5626 38.3446 21.0812 38.3446C13.6 38.3446 7.53504 32.2797 7.53504 24.7983C7.53504 17.3169 13.6 11.2523 21.0812 11.2523Z" fill="#110D3C"/>
</g>
</g>
</g>
</g>
<defs>
<clipPath id="clip0_1852_474">
<rect width="45" height="45" fill="white" transform="translate(0.0800171 0.798828)"/>
</clipPath>
</defs>
</svg>
