<svg width="46" height="46" viewBox="0 0 46 46" fill="none" xmlns="http://www.w3.org/2000/svg">
<g id="SVG" clip-path="url(#clip0_1852_446)">
<path id="Vector" d="M43.0077 9.46008C43.3424 8.82785 43.5284 8.08405 43.5284 7.30305C43.5284 4.73694 41.4457 2.6543 38.8796 2.6543C36.3135 2.6543 34.2309 4.73694 34.2309 7.30305C34.2309 9.86917 36.3135 11.9518 38.8796 11.9518C39.6606 11.9518 40.4044 11.7659 41.0366 11.4311L43.0077 13.4022C43.2792 13.6756 43.6362 13.8113 43.9932 13.8113C44.3503 13.8113 44.7073 13.6756 44.9787 13.4022C45.5236 12.8574 45.5236 11.9741 44.9787 11.4293L43.0077 9.46008ZM37.0201 7.30305C37.0201 6.28033 37.8569 5.44355 38.8796 5.44355C39.9023 5.44355 40.7391 6.28033 40.7391 7.30305C40.7391 8.32578 39.9023 9.16255 38.8796 9.16255C37.8569 9.16255 37.0201 8.32578 37.0201 7.30305Z" fill="#110D3C"/>
<path id="Vector_2" d="M4.01414 13.8113H27.258C29.0523 13.8113 30.5121 12.3516 30.5121 10.5572V5.90843C30.5121 4.114 29.0523 2.6543 27.258 2.6543H4.01414C2.21972 2.6543 0.76001 4.114 0.76001 5.90843V10.5572C0.76001 12.3516 2.21972 13.8113 4.01414 13.8113Z" fill="#110D3C"/>
<path id="Vector_3" d="M43.9933 18.4609H31.9067C31.1367 18.4609 30.512 19.0857 30.512 19.8555C30.512 20.6254 31.1367 21.2502 31.9067 21.2502H43.9933C44.7633 21.2502 45.388 20.6254 45.388 19.8555C45.388 19.0857 44.7633 18.4609 43.9933 18.4609Z" fill="#110D3C"/>
<path id="Vector_4" d="M43.9933 24.0391H31.9067C31.1367 24.0391 30.512 24.6638 30.512 25.4337C30.512 26.2035 31.1367 26.8283 31.9067 26.8283H43.9933C44.7633 26.8283 45.388 26.2035 45.388 25.4337C45.388 24.6638 44.7633 24.0391 43.9933 24.0391Z" fill="#110D3C"/>
<path id="Vector_5" d="M43.9933 29.6172H31.9067C31.1367 29.6172 30.512 30.242 30.512 31.0118C30.512 31.7816 31.1367 32.4064 31.9067 32.4064H43.9933C44.7633 32.4064 45.388 31.7816 45.388 31.0118C45.388 30.242 44.7633 29.6172 43.9933 29.6172Z" fill="#110D3C"/>
<path id="Vector_6" d="M43.9933 35.1953H31.9067C31.1367 35.1953 30.512 35.8201 30.512 36.5899C30.512 37.3597 31.1367 37.9845 31.9067 37.9845H43.9933C44.7633 37.9845 45.388 37.3597 45.388 36.5899C45.388 35.8201 44.7633 35.1953 43.9933 35.1953Z" fill="#110D3C"/>
<path id="Vector_7" d="M43.9933 40.7754H31.9067C31.1367 40.7754 30.512 41.4003 30.512 42.1701C30.512 42.9399 31.1367 43.5647 31.9067 43.5647H43.9933C44.7633 43.5647 45.388 42.9399 45.388 42.1701C45.388 41.4003 44.7633 40.7754 43.9933 40.7754Z" fill="#110D3C"/>
<path id="Vector_8" d="M4.01414 43.5642H23.5389C25.3241 43.5642 26.793 42.0952 26.793 40.3101V21.7151C26.793 19.93 25.3241 18.4609 23.5389 18.4609H4.01414C2.22901 18.4609 0.76001 19.93 0.76001 21.7151V40.3101C0.76001 42.0952 2.22901 43.5642 4.01414 43.5642ZM8.19802 36.1262V25.8989C8.19802 25.4155 8.43976 24.9692 8.86744 24.7089C9.27654 24.4485 9.7786 24.43 10.2063 24.653L20.4336 29.7667C20.917 30.0084 21.2146 30.4919 21.2146 31.0126C21.2146 31.5332 20.917 32.0167 20.4336 32.2584L10.2063 37.3721C10.0203 37.465 9.7972 37.5208 9.59265 37.5208C9.33232 37.5208 9.09058 37.4464 8.86744 37.3162C8.43976 37.056 8.19802 36.6096 8.19802 36.1262Z" fill="#110D3C"/>
</g>
<defs>
<clipPath id="clip0_1852_446">
<rect width="45" height="45" fill="white" transform="translate(0.76001 0.609375)"/>
</clipPath>
</defs>
</svg>
