<svg width="46" height="46" viewBox="0 0 46 46" fill="none" xmlns="http://www.w3.org/2000/svg">
<g id="SVG" clip-path="url(#clip0_1852_434)">
<path id="Vector" d="M40.3045 36.0419C39.3171 36.0443 38.3553 36.3565 37.5548 36.9343L32.8676 32.2552C34.9399 29.9549 36.1553 27.0101 36.3085 23.9177H42.1295L40.3205 25.7267C40.1745 25.8781 40.0935 26.0807 40.095 26.2911C40.0966 26.5015 40.1804 26.7029 40.3287 26.8521C40.477 27.0014 40.6778 27.0868 40.8882 27.0897C41.0985 27.0928 41.3017 27.0133 41.4541 26.8683L44.6379 23.6846C44.7146 23.6093 44.7754 23.5192 44.8162 23.4198C44.8572 23.3204 44.8775 23.2138 44.8759 23.1062C44.8745 22.9988 44.8512 22.8927 44.8075 22.7945C44.7638 22.6963 44.7007 22.608 44.6218 22.5348L41.4541 19.3671C41.3029 19.221 41.1004 19.1403 40.8902 19.1422C40.68 19.144 40.4789 19.2282 40.3303 19.377C40.1817 19.5256 40.0973 19.7266 40.0955 19.9369C40.0937 20.147 40.1745 20.3495 40.3205 20.5007L42.1295 22.3096H36.3005C36.1115 19.2349 34.8742 16.3177 32.7951 14.0446L37.5226 9.3172C40.5193 11.5806 45.1528 9.18148 45.0478 5.40969C44.8432 -0.911928 35.6732 -0.912851 35.4805 5.40992C35.482 6.40856 35.797 7.38154 36.381 8.19159L31.6455 12.919C29.3556 10.8962 26.4478 9.70878 23.3964 9.55037V3.57671L25.2054 5.38569C25.3571 5.5349 25.5616 5.61799 25.7743 5.61676C25.9871 5.61554 26.1906 5.5301 26.3406 5.37915C26.4904 5.2282 26.5744 5.02402 26.5741 4.8113C26.5739 4.59857 26.4893 4.39462 26.339 4.24407L23.1713 1.07631C23.0967 0.997796 23.007 0.935231 22.9075 0.892393C22.8079 0.849555 22.7008 0.827333 22.5925 0.827071C22.38 0.832001 22.1768 0.915001 22.0217 1.06023L18.8378 4.24407C18.6911 4.39536 18.6097 4.5982 18.6109 4.80894C18.6121 5.0197 18.6961 5.22154 18.8446 5.3711C18.9931 5.52064 19.1943 5.60594 19.405 5.60866C19.6158 5.6114 19.8192 5.53132 19.9715 5.38566L21.7885 3.56867V9.5584C18.7497 9.74737 15.8647 10.9603 13.6039 12.9996L8.77992 8.17556C12.0567 3.36752 5.7058 -2.00535 1.49572 2.02509C-2.53997 6.21535 2.85429 12.5941 7.64637 9.30909L12.4702 14.1331C11.9705 14.6832 11.5187 15.275 11.1195 15.9019C9.89833 17.8296 9.17965 20.0327 9.02917 22.3097H3.04746L4.85645 20.5007C5.00196 20.3494 5.08232 20.147 5.08026 19.9371C5.07821 19.7273 4.9939 19.5265 4.84547 19.3781C4.69703 19.2296 4.49628 19.1453 4.28637 19.1433C4.07646 19.1413 3.87411 19.2216 3.72281 19.3672L0.539018 22.5509C0.391102 22.701 0.307479 22.9029 0.305877 23.1136C0.304805 23.2195 0.324873 23.3246 0.364906 23.4226C0.40494 23.5206 0.464133 23.6097 0.539018 23.6845L3.72285 26.8683C3.87518 27.014 4.07859 27.0941 4.28933 27.0913C4.50006 27.0886 4.70131 27.0032 4.84981 26.8537C4.9983 26.7041 5.08218 26.5023 5.08342 26.2915C5.08466 26.0807 5.00315 25.8779 4.85643 25.7267L3.04746 23.9177H9.02917C9.19387 26.97 10.3804 29.8783 12.3979 32.1747L7.63825 36.9264C4.63445 34.6524 -0.0132898 37.0468 0.0969081 40.8258C0.0967204 41.5783 0.274098 42.3202 0.614621 42.9912C0.955145 43.6622 1.44921 44.2434 2.05663 44.6875C2.66406 45.1317 3.36773 45.4262 4.11042 45.5472C4.8531 45.6681 5.61386 45.6122 6.33083 45.3838C7.04782 45.1553 7.70078 44.761 8.23666 44.2327C8.77253 43.7045 9.17619 43.0572 9.41482 42.3436C9.65345 41.6299 9.72031 40.8701 9.60997 40.1258C9.49963 39.3814 9.21521 38.6736 8.77982 38.0598L13.5154 33.3325C15.7987 35.3996 18.7149 36.6323 21.7886 36.8299V42.6587L19.9715 40.8497C19.8202 40.7042 19.6178 40.6238 19.4079 40.6259C19.1979 40.628 18.9972 40.7122 18.8487 40.8607C18.7003 41.0091 18.6161 41.2099 18.6141 41.4199C18.612 41.6298 18.6924 41.8321 18.8379 41.9834L22.0217 45.1672C22.1748 45.3162 22.3804 45.399 22.5942 45.3974C22.8078 45.396 23.0124 45.3103 23.1633 45.1591L26.3391 41.9834C26.485 41.8322 26.5658 41.6297 26.564 41.4195C26.5621 41.2094 26.4778 41.0084 26.3292 40.8596C26.1806 40.711 25.9795 40.6268 25.7693 40.6248C25.5591 40.623 25.3566 40.7038 25.2054 40.8497L23.3965 42.6507V36.8379C26.4898 36.6826 29.4349 35.4642 31.7338 33.3887L36.405 38.0599C35.8294 38.8671 35.5202 39.8341 35.5207 40.8256C35.4267 44.9853 40.809 47.2306 43.6732 44.2103C46.7027 41.33 44.4882 35.9618 40.3045 36.0419ZM27.7622 30.7919H17.4228C14.0788 30.4233 16.4481 25.2049 18.0901 23.9901C18.6209 23.5318 19.2171 23.1552 19.8589 22.8726C19.3845 22.4796 19.0024 21.9871 18.7398 21.4299C18.4771 20.8726 18.3405 20.2645 18.3394 19.6485C18.5214 14.0421 26.6626 14.0384 26.8456 19.6485C26.8442 20.2637 26.7082 20.8711 26.447 21.4279C26.1859 21.9849 25.8061 22.478 25.3341 22.8724C25.9647 23.1509 26.5501 23.5221 27.0708 23.9739C28.7297 25.1754 31.1134 30.4198 27.7622 30.7919Z" fill="#110D3C"/>
<path id="Vector_2" d="M22.5924 22.2939C23.2884 22.2872 23.9536 22.0059 24.4434 21.5114C24.9333 21.0167 25.208 20.3488 25.208 19.6528C25.208 18.9567 24.9332 18.2888 24.4433 17.7943C23.9536 17.2997 23.2884 17.0185 22.5924 17.0117C21.8963 17.0185 21.2311 17.2997 20.7413 17.7943C20.2515 18.2889 19.9767 18.9568 19.9767 19.6529C19.9767 20.3489 20.2516 21.0168 20.7414 21.5114C21.2311 22.0059 21.8963 22.2872 22.5924 22.2939Z" fill="#110D3C"/>
<path id="Vector_3" d="M26.2908 25.4302C25.3504 24.5031 24.0958 23.9637 22.7762 23.919C21.4565 23.8744 20.1682 24.3277 19.1674 25.1892C18.5887 25.6759 18.1302 26.2897 17.8276 26.9829C17.5249 27.676 17.3863 28.4295 17.4227 29.1848H27.7621C27.7971 28.4905 27.684 27.7966 27.4303 27.1492C27.1766 26.5019 26.7882 25.9159 26.2908 25.4302Z" fill="#110D3C"/>
</g>
<defs>
<clipPath id="clip0_1852_434">
<rect width="45" height="45" fill="white" transform="translate(0.0800171 0.609375)"/>
</clipPath>
</defs>
</svg>
