<svg width="46" height="46" viewBox="0 0 46 46" fill="none" xmlns="http://www.w3.org/2000/svg">
<g id="SVG" clip-path="url(#clip0_1852_424)">
<path id="Vector" d="M14.2858 4.10279C13.9526 3.52419 14.831 3.01693 15.1646 3.59543L18.0007 8.50764C18.0679 8.62415 18.0863 8.76259 18.0514 8.89256C18.0167 9.02253 17.9319 9.13339 17.8154 9.2008C17.5744 9.339 17.2633 9.26006 17.1222 9.015L14.2858 4.10279ZM8.55274 10.2083L13.4639 13.0446C13.7052 13.1829 14.0163 13.1037 14.157 12.8588C14.1903 12.8011 14.212 12.7374 14.2207 12.6713C14.2294 12.6052 14.225 12.5381 14.2078 12.4737C14.1905 12.4094 14.1608 12.349 14.1202 12.2962C14.0797 12.2433 14.029 12.1989 13.9713 12.1656L9.0601 9.32957C8.48171 8.99603 7.97394 9.87469 8.55274 10.2083ZM23.3191 7.35379V1.68256C23.3191 1.01446 22.3044 1.01487 22.3044 1.68256V7.35379C22.3044 8.02198 23.3191 8.02239 23.3191 7.35379ZM31.9059 13.1125C31.9949 13.1123 32.0823 13.089 32.1595 13.0446L37.0721 10.2083C37.6499 9.87469 37.1431 8.99562 36.5642 9.32967L31.6522 12.1657C31.2019 12.4255 31.393 13.1125 31.9059 13.1125ZM12.0822 18.0591L8.49216 15.987C7.92137 15.6576 7.18042 15.8538 6.84982 16.4267L0.550577 27.339C0.219673 27.9122 0.416734 28.6499 0.990056 28.9809L4.58007 31.0541C5.15137 31.384 5.89151 31.1868 6.22241 30.6137L12.5227 19.7012C12.852 19.1304 12.6538 18.389 12.0822 18.0591ZM28.0621 9.26869C28.2364 9.26869 28.408 9.17736 28.5015 9.015L31.3376 4.1027C31.6715 3.5246 30.7931 3.01662 30.4587 3.59533L27.6225 8.50753C27.426 8.84818 27.6758 9.26869 28.0621 9.26869ZM21.0742 40.4003L20.1397 41.7296C19.031 43.3113 21.4139 44.9808 22.5214 43.4054L23.4558 42.0761C24.5638 40.5 22.1835 38.8227 21.0742 40.4003ZM24.2687 20.7841C22.3074 20.3522 21.1485 20.5146 19.5984 21.7866C18.8794 22.3764 18.0624 23.1965 17.3937 23.8551L16.3358 24.8932L16.1282 29.2554C16.1147 29.5399 16.1497 29.9216 16.4149 30.0884C16.8805 30.3806 17.7877 29.9941 18.2067 29.7678C19.0937 29.2887 19.7472 27.4503 20.2731 26.4582C20.3152 26.3793 20.3818 26.3164 20.463 26.2789C21.9776 25.5799 23.5684 24.6503 25.2191 25.6059L35.066 31.3069L37.9917 29.8124L32.6796 20.6096C29.8245 21.4634 27.1492 21.4182 24.2687 20.7841ZM34.8463 32.1275L24.8078 26.3162C23.5489 25.5874 22.1818 26.3722 20.9637 26.9507C20.7015 27.1328 19.9773 29.743 18.5958 30.4893C17.8585 30.8874 16.762 31.2749 15.9775 30.7818C15.439 30.4433 15.2802 29.8204 15.3089 29.2169L15.5242 24.6921C15.5291 24.588 15.5739 24.4892 15.6487 24.4164L17.7641 22.345L12.9385 20.6211L7.55577 29.9436L10.847 34.0531L11.9783 32.4465C12.7685 31.3238 14.115 31.1861 15.1395 31.906C15.6269 32.2484 15.8746 32.6375 16.0693 33.1781L16.1768 33.0835C17.7449 31.7017 20.2222 33.2274 19.9151 35.1617L19.8953 35.286L20.0206 35.2739C21.7367 35.1085 23.3695 37.0223 22.2016 38.7957L22.1064 38.9404L22.2795 38.9467C23.8352 39.0027 25.1246 40.6486 24.3244 42.2207L24.2828 42.3027L26.6973 43.7078C28.3622 44.6766 29.8198 42.165 28.1738 41.1981L25.4599 39.6176C24.9937 39.3462 25.4077 38.6386 25.8721 38.9091L29.4228 40.9762C31.0872 41.9448 32.5465 39.4328 30.8992 38.4664L27.5744 36.5309C27.1093 36.2601 27.5194 35.5505 27.9867 35.8223L32.3633 38.3704C34.0293 39.3423 35.4963 36.8236 33.8291 35.853L32.9478 35.3406L29.6889 33.4429C29.2238 33.172 29.6351 32.4624 30.1024 32.7347L33.3842 34.6452C35.0487 35.614 36.5138 33.0927 34.8463 32.1275ZM45.0729 27.339L38.7735 16.4267C38.4426 15.8532 37.7021 15.6578 37.1317 15.987L33.5417 18.0591C32.9696 18.3893 32.7721 19.131 33.1013 19.7011L39.4016 30.6136C39.7322 31.1864 40.4717 31.3842 41.0433 31.054L44.6334 28.9808C45.2068 28.6499 45.4038 27.9122 45.0729 27.339ZM21.4818 38.3958C22.5907 36.8201 20.2089 35.1423 19.1002 36.719L16.4944 40.4247C15.3867 42.0003 17.7679 43.6764 18.877 42.0994L20.4097 39.9192L21.4818 38.3958ZM15.0315 34.5925C16.138 33.0213 13.7594 31.3396 12.6489 32.9177L10.7838 35.5682C9.67564 37.1431 12.055 38.8224 13.1655 37.2439L15.0315 34.5925ZM16.4442 34.0085L13.836 37.7164L13.2832 38.5017C12.1723 40.0794 14.5566 41.7571 15.6657 40.1776L18.8262 35.6844C19.9353 34.1097 17.5544 32.43 16.4442 34.0085Z" fill="#110D3C"/>
</g>
<defs>
<clipPath id="clip0_1852_424">
<rect width="45" height="45" fill="white" transform="translate(0.390015 0.109375)"/>
</clipPath>
</defs>
</svg>
