<svg width="55" height="55" viewBox="0 0 55 55" fill="none" xmlns="http://www.w3.org/2000/svg">
<g id="customer-care_6012594 1">
<path id="Vector" fill-rule="evenodd" clip-rule="evenodd" d="M6.43664 39.1737C6.51903 39.7324 6.13285 40.251 5.57662 40.3328C5.01534 40.4148 4.50036 40.028 4.41786 39.4692C4.33547 38.9114 4.72165 38.3918 5.27788 38.31C5.83927 38.2291 6.3594 38.6154 6.43664 39.1737ZM27.5005 11.6478C29.6198 11.6478 31.3378 13.3658 31.3378 15.4851C31.3378 17.6044 29.6198 19.3224 27.5005 19.3224C25.3811 19.3224 23.6631 17.6044 23.6631 15.4851C23.6631 13.3658 25.3811 11.6478 27.5005 11.6478ZM35.0462 26.779C34.6387 22.9715 31.416 20.006 27.5004 20.006C23.5846 20.006 20.362 22.9715 19.9545 26.779V28.313C19.9545 29.4301 20.8657 30.3412 21.9827 30.3412H33.018C34.135 30.3412 35.0462 29.4301 35.0462 28.313V26.779ZM16.032 14.5925C17.6175 14.5925 18.9028 15.8778 18.9028 17.4634C18.9028 19.0489 17.6175 20.3342 16.032 20.3342C14.4464 20.3342 13.1611 19.0489 13.1611 17.4634C13.1611 15.8778 14.4464 14.5925 16.032 14.5925ZM16.032 21.1011C17.4442 21.1011 18.7357 21.6168 19.7291 22.4699C18.9337 23.6731 18.4084 25.0756 18.2456 26.5962L18.2359 26.6874V26.7793H11.8468C11.4211 26.7793 11.0548 26.5942 10.8022 26.2516C10.5495 25.9089 10.4811 25.5042 10.6071 25.0975C11.3238 22.7827 13.4816 21.1011 16.032 21.1011ZM38.9688 21.1011C41.5192 21.1011 43.677 22.7827 44.3938 25.0975C44.5198 25.5042 44.4513 25.9089 44.1988 26.2516C43.9461 26.5942 43.5799 26.7793 43.1541 26.7793H36.7651V26.6873L36.7553 26.5961C36.5925 25.0755 36.0672 23.6731 35.2717 22.4699C36.2651 21.6168 37.5566 21.1011 38.9688 21.1011ZM38.9688 14.5925C40.5544 14.5925 41.8397 15.8778 41.8397 17.4634C41.8397 19.0489 40.5544 20.3342 38.9688 20.3342C37.3833 20.3342 36.098 19.0489 36.098 17.4634C36.098 15.8778 37.3833 14.5925 38.9688 14.5925ZM15.601 3.23513L16.7033 6.1382C16.7364 6.22543 16.8135 6.2815 16.9067 6.28602L20.0083 6.43716C20.1054 6.44188 20.1855 6.50301 20.2155 6.5955C20.2455 6.68799 20.2168 6.78445 20.141 6.84547L17.7206 8.79088C17.6478 8.84932 17.6183 8.93998 17.6429 9.03011L18.4576 12.0266C18.4831 12.1205 18.4496 12.2155 18.371 12.2726C18.2924 12.3298 18.1916 12.3323 18.1103 12.279L15.5121 10.5783C15.434 10.5271 15.3386 10.5271 15.2606 10.5783L12.6625 12.2791C12.5812 12.3324 12.4804 12.3299 12.4018 12.2727C12.3231 12.2156 12.2896 12.1206 12.3152 12.0267L13.1299 9.03011C13.1544 8.94009 13.1249 8.84942 13.0522 8.79088L10.6318 6.84547C10.5559 6.78456 10.5273 6.6881 10.5572 6.5955C10.5873 6.50301 10.6672 6.44188 10.7645 6.43716L13.8662 6.28602C13.9594 6.2815 14.0365 6.22543 14.0696 6.1382L15.1719 3.23513C15.2063 3.14414 15.2893 3.08699 15.3865 3.08699C15.4836 3.08699 15.5664 3.14414 15.601 3.23513ZM39.8291 3.23513L40.9313 6.1382C40.9644 6.22543 41.0415 6.2815 41.1348 6.28602L44.2364 6.43716C44.3335 6.44188 44.4135 6.50301 44.4436 6.5955C44.4735 6.68799 44.4449 6.78445 44.369 6.84547L41.9486 8.79088C41.8759 8.84932 41.8463 8.93998 41.8709 9.03011L42.6856 12.0266C42.7112 12.1205 42.6777 12.2155 42.599 12.2726C42.5204 12.3298 42.4196 12.3323 42.3383 12.279L39.7401 10.5782C39.662 10.527 39.5666 10.527 39.4886 10.5782L36.8905 12.279C36.8092 12.3323 36.7086 12.3298 36.6298 12.2726C36.5512 12.2155 36.5177 12.1205 36.5432 12.0266L37.3578 9.03C37.3823 8.93998 37.3529 8.84932 37.2801 8.79077L34.8597 6.84536C34.7839 6.78445 34.7552 6.68799 34.7852 6.59539C34.8152 6.5029 34.8952 6.44178 34.9924 6.43705L38.0941 6.28591C38.1873 6.2814 38.2645 6.22532 38.2975 6.1381L39.3998 3.23502C39.4343 3.14403 39.5172 3.08688 39.6144 3.08688C39.7116 3.08699 39.7946 3.14414 39.8291 3.23513ZM27.7151 0.911914L28.8173 3.81499C28.8504 3.90222 28.9276 3.95829 29.0208 3.9628L32.1224 4.11395C32.2195 4.11867 32.2995 4.1799 32.3296 4.27229C32.3597 4.36478 32.3309 4.46135 32.2551 4.52226L29.8346 6.46767C29.7619 6.5261 29.7324 6.61677 29.757 6.70689L30.5716 9.70343C30.5971 9.79731 30.5637 9.89228 30.4851 9.94942C30.4064 10.0066 30.3057 10.009 30.2244 9.95576L27.6261 8.25495C27.548 8.20382 27.4527 8.20382 27.3747 8.25495L24.7766 9.95576C24.6952 10.009 24.5946 10.0066 24.5159 9.94942C24.4372 9.89228 24.4037 9.79731 24.4293 9.70343L25.244 6.70679C25.2684 6.61677 25.239 6.5261 25.1663 6.46756L22.7459 4.52215C22.67 4.46124 22.6413 4.36478 22.6713 4.27218C22.7013 4.17969 22.7813 4.11856 22.8785 4.11384L25.9802 3.9627C26.0735 3.95818 26.1506 3.90211 26.1837 3.81488L27.2859 0.911807C27.3204 0.82082 27.4034 0.763672 27.5006 0.763672C27.5977 0.763779 27.6806 0.820928 27.7151 0.911914ZM9.72934 38.7606L15.2314 48.4695L17.3016 47.2748C17.5025 47.1584 17.7395 47.1275 17.966 47.1878L30.9676 50.0512C32.6876 50.5111 34.3047 50.284 35.7827 49.3756L51.5709 39.5633C52.4309 39.0359 52.6936 37.4879 52.1014 36.4966C51.2413 35.0608 48.9652 35.2302 46.0091 36.9508L38.5328 41.3052C36.9775 42.2137 35.2986 42.5077 33.4087 42.205C33.0636 42.1493 32.7237 42.09 32.389 42.0257C32.3168 42.0205 26.0289 40.386 25.308 40.1918C24.8393 40.0672 24.5612 39.5882 24.6899 39.1233C24.8135 38.6566 25.2924 38.3806 25.7559 38.5053C26.4923 38.7025 30.9521 39.9667 32.6259 40.2922C33.4807 40.3468 34.4746 40.1089 34.8145 38.8503C35.0927 37.8183 34.4849 36.7703 33.3983 36.3938C30.3445 35.8345 27.3936 34.769 25.0246 33.9111C24.1955 33.6118 23.4797 33.3533 22.8617 33.1524C20.915 32.5211 19.0661 33.3497 17.3616 34.339L9.72934 38.7606ZM15.0318 51.678L6.61689 36.8088C6.53461 36.6635 6.40065 36.5594 6.23576 36.5136C6.17915 36.4986 6.12254 36.4909 6.06582 36.4909C5.95775 36.4909 5.85474 36.5183 5.76203 36.5708L2.8987 38.1904C2.59491 38.362 2.49179 38.7467 2.66173 39.0479L11.0766 53.9171C11.2466 54.2195 11.6329 54.3255 11.9315 54.155L14.7948 52.5349C14.939 52.4529 15.042 52.3176 15.0884 52.1554C15.1348 51.9926 15.1142 51.8232 15.0318 51.678Z" fill="white"/>
</g>
</svg>
