<svg width="113" height="98" viewBox="0 0 113 98" fill="none" xmlns="http://www.w3.org/2000/svg">
<g id="app-development_8004045 1">
<g id="Group">
<path id="Vector" d="M45.7468 77.9691C46.7019 77.9691 47.4761 77.2977 47.4761 76.4694C47.4761 75.6412 46.7019 74.9697 45.7468 74.9697C44.7918 74.9697 44.0176 75.6412 44.0176 76.4694C44.0176 77.2977 44.7918 77.9691 45.7468 77.9691Z" fill="#F26633"/>
<path id="Vector_2" d="M106.083 42.6596H89.3213V40.2096C90.982 39.8384 92.5914 39.3038 94.1152 38.5614L97.7107 40.4472C98.1387 40.6699 98.6181 40.7887 99.0975 40.7887C99.7823 40.7887 100.467 40.5511 100.981 40.1057L103.412 37.9972C104.285 37.2399 104.439 36.0817 103.806 35.1611L101.631 32.0429C102.402 30.8402 103.018 29.5781 103.446 28.2566L107.521 27.3805C108.72 27.1281 109.541 26.1926 109.541 25.1384V22.1538C109.541 21.0847 108.702 20.1641 107.521 19.9117L103.446 19.0357C103.018 17.7141 102.419 16.452 101.631 15.2493L103.806 12.1311C104.439 11.2105 104.285 10.0523 103.412 9.29505L100.981 7.17171C100.108 6.41444 98.7722 6.28081 97.7107 6.8302L94.1152 8.71596C92.7284 8.04778 91.2731 7.51323 89.7493 7.14202L88.7391 3.60808C88.4481 2.56868 87.3866 1.85596 86.1538 1.85596H82.6954C81.4626 1.85596 80.4011 2.58353 80.11 3.60808L79.0999 7.14202C77.5761 7.51323 76.1208 8.03293 74.734 8.71596L71.1385 6.8302C70.0941 6.28081 68.7416 6.41444 67.8684 7.17171L65.4372 9.2802C64.564 10.0375 64.3928 11.1957 65.0434 12.1163L67.2178 15.2344C66.4302 16.4372 65.831 17.6993 65.4029 19.0208L61.3281 19.8969C60.1296 20.1493 59.3078 21.0699 59.3078 22.139V25.1235C59.3078 25.1978 59.342 25.2572 59.342 25.3166H6.91686C4.31444 25.3166 2.19141 27.1578 2.19141 29.4147V79.8847C2.19141 82.1417 4.31444 83.9829 6.91686 83.9829H31.8796V87.9475H26.1097C23.5073 87.9475 21.3843 89.7887 21.3843 92.0457V95.0302C21.3843 95.639 21.9664 96.1438 22.6684 96.1438H106.083C108.685 96.1438 110.808 94.3026 110.808 92.0457V46.7578C110.808 44.5008 108.685 42.6596 106.083 42.6596ZM84.5958 25.3314H75.9838C75.8297 24.7672 75.727 24.2029 75.727 23.6387C75.727 19.4811 79.6307 16.0957 84.4246 16.0957C89.2185 16.0957 93.1222 19.4811 93.1222 23.6387C93.1222 26.1778 91.6669 28.4644 89.3213 29.8454V29.4296C89.3213 27.1726 87.1982 25.3314 84.5958 25.3314ZM61.9444 22.0647L66.7555 21.0402C67.2178 20.9363 67.5944 20.6244 67.6972 20.2087C68.1252 18.6644 68.8272 17.1796 69.8031 15.8284C70.0599 15.472 70.0599 15.0266 69.8031 14.6702L67.252 10.8838L69.8202 8.7605L74.0663 10.9878C74.4772 11.2105 74.9908 11.2105 75.4017 10.9878C76.9769 10.1414 78.6719 9.53262 80.4525 9.16141C80.9147 9.07232 81.2914 8.74565 81.4113 8.34474L82.6954 4.09808L86.2394 4.15747L87.4208 8.3299C87.5407 8.73081 87.9002 9.05747 88.3796 9.14656C90.1602 9.51778 91.8723 10.1266 93.4304 10.9729C93.8413 11.1957 94.3549 11.1957 94.7658 10.9729L99.1317 8.7605L101.58 10.9878L99.0119 14.6702C98.7551 15.0266 98.7722 15.472 99.0119 15.8284C99.9878 17.1944 100.69 18.6644 101.118 20.2087C101.221 20.6096 101.597 20.9363 102.059 21.0402L106.956 22.1538L106.888 25.2275L102.077 26.252C101.614 26.356 101.238 26.6678 101.135 27.0835C100.707 28.6278 100.005 30.1126 99.029 31.4638C98.7722 31.8202 98.7722 32.2657 99.029 32.622L101.58 36.4084L99.0119 38.5317L94.7658 36.3044C94.3549 36.0817 93.8413 36.0966 93.4304 36.3044C92.1291 37.0023 90.7594 37.522 89.3041 37.8932V32.3844C93.1907 30.7511 95.6732 27.4102 95.6732 23.6238C95.6732 18.2338 90.6225 13.8535 84.4075 13.8535C78.1925 13.8535 73.1417 18.2338 73.1417 23.6238C73.1417 24.1881 73.2102 24.7523 73.33 25.3166H62.3211C62.1841 25.2275 62.03 25.1532 61.8588 25.1235L61.9444 22.0647ZM6.91686 81.7557C5.7355 81.7557 4.75959 80.9093 4.75959 79.8847V71.1835H51.0553V81.7557H6.91686ZM51.0553 83.9829V87.9475H34.4478V83.9829H51.0553ZM23.9525 93.9166V92.0457C23.9525 91.0211 24.9284 90.1747 26.1097 90.1747H51.0725V92.0457C51.0725 92.7287 51.2779 93.3523 51.6203 93.9166H23.9525ZM51.0553 46.7578V68.9414H4.75959V29.4296C4.75959 28.3902 5.7355 27.5587 6.91686 27.5587H84.5958C85.7772 27.5587 86.7531 28.405 86.7531 29.4296V42.6596H55.7808C53.1784 42.6596 51.0553 44.5008 51.0553 46.7578ZM108.24 92.0457C108.24 93.0702 107.264 93.9166 106.083 93.9166H55.7808C54.5994 93.9166 53.6235 93.0702 53.6235 92.0457V54.7463H108.24V92.0457ZM108.24 52.519H53.6235V46.7726C53.6235 45.7332 54.5994 44.9017 55.7808 44.9017H106.083C107.281 44.9017 108.24 45.7481 108.24 46.7726V52.519Z" fill="#F26633"/>
<path id="Vector_3" d="M18.817 39.1853C18.3205 38.7547 17.4987 38.7547 17.0022 39.1853L11.181 44.2337C10.6845 44.6644 10.6845 45.3771 11.181 45.8077L17.0022 50.8562C17.259 51.0789 17.5843 51.1828 17.9096 51.1828C18.2349 51.1828 18.5602 51.0789 18.817 50.8562C19.3136 50.4256 19.3136 49.7128 18.817 49.2822L13.9033 45.0207L18.817 40.7592C19.3307 40.3286 19.3307 39.6159 18.817 39.1853Z" fill="#F26633"/>
<path id="Vector_4" d="M36.4333 39.1853C35.9368 38.7547 35.115 38.7547 34.6185 39.1853C34.122 39.6159 34.122 40.3286 34.6185 40.7592L39.5323 45.0207L34.6185 49.2822C34.122 49.7128 34.122 50.4256 34.6185 50.8562C34.8753 51.0789 35.2006 51.1828 35.5259 51.1828C35.8512 51.1828 36.1765 51.0789 36.4333 50.8562L42.2545 45.8077C42.4942 45.5998 42.6312 45.3177 42.6312 45.0207C42.6312 44.7237 42.4942 44.4416 42.2545 44.2337L36.4333 39.1853Z" fill="#F26633"/>
<path id="Vector_5" d="M32.427 34.404C31.7764 34.1516 31.023 34.3892 30.7149 34.9386L20.3736 54.1674C20.0655 54.7316 20.3565 55.3849 20.99 55.6522C21.1612 55.7265 21.3496 55.7562 21.5379 55.7562C22.0173 55.7562 22.4796 55.5186 22.7021 55.1177L33.0433 35.8889C33.3515 35.3246 33.0605 34.6565 32.427 34.404Z" fill="#F26633"/>
<path id="Vector_6" d="M59.2216 83.8196H75.7264C76.4284 83.8196 77.0105 83.3147 77.0105 82.7059C77.0105 82.0971 76.4284 81.5923 75.7264 81.5923H59.2216C58.5196 81.5923 57.9375 82.0971 57.9375 82.7059C57.9375 83.3147 58.5196 83.8196 59.2216 83.8196Z" fill="#F26633"/>
<path id="Vector_7" d="M59.2216 90.1745H67.1145C67.8164 90.1745 68.3986 89.6697 68.3986 89.0609C68.3986 88.4521 67.8164 87.9473 67.1145 87.9473H59.2216C58.5196 87.9473 57.9375 88.4521 57.9375 89.0609C57.9375 89.6697 58.5196 90.1745 59.2216 90.1745Z" fill="#F26633"/>
<path id="Vector_8" d="M102.642 81.5923H86.1376C85.4356 81.5923 84.8535 82.0971 84.8535 82.7059C84.8535 83.3147 85.4356 83.8196 86.1376 83.8196H102.642C103.344 83.8196 103.927 83.3147 103.927 82.7059C103.927 82.0971 103.344 81.5923 102.642 81.5923Z" fill="#F26633"/>
<path id="Vector_9" d="M94.0305 87.9473H86.1376C85.4356 87.9473 84.8535 88.4521 84.8535 89.0609C84.8535 89.6697 85.4356 90.1745 86.1376 90.1745H94.0305C94.7325 90.1745 95.3146 89.6697 95.3146 89.0609C95.3146 88.4521 94.7325 87.9473 94.0305 87.9473Z" fill="#F26633"/>
<path id="Vector_10" d="M57.9901 76.5587C58.0072 76.6329 58.0072 76.722 58.0414 76.7814V76.7963C58.1099 76.9151 58.1955 77.019 58.2811 77.1081C58.3154 77.1378 58.3325 77.1526 58.3668 77.1675C58.4524 77.2269 58.538 77.2863 58.6407 77.3308C58.6749 77.3457 58.7263 77.3605 58.7605 77.3754C58.8975 77.4199 59.0516 77.4496 59.2057 77.4496H102.625C102.779 77.4496 102.933 77.4199 103.07 77.3754C103.104 77.3605 103.156 77.3457 103.19 77.3308C103.293 77.2863 103.378 77.2269 103.464 77.1675C103.498 77.1378 103.533 77.1229 103.55 77.1081C103.652 77.019 103.738 76.9151 103.789 76.7963C103.789 76.7963 103.789 76.7963 103.789 76.7814C103.824 76.722 103.824 76.6478 103.841 76.5884C103.858 76.5141 103.892 76.4399 103.892 76.3508C103.892 76.3508 103.892 76.3508 103.892 76.336V59.6017C103.892 59.6017 103.892 59.6017 103.892 59.5869C103.892 59.5126 103.858 59.4384 103.841 59.3493C103.824 59.2899 103.824 59.2157 103.789 59.1563C103.789 59.1563 103.789 59.1563 103.789 59.1414C103.772 59.0969 103.721 59.0672 103.687 59.0226C103.635 58.9484 103.584 58.8593 103.498 58.7999C103.447 58.7553 103.378 58.7257 103.31 58.696C103.241 58.6514 103.156 58.6069 103.07 58.5772C102.985 58.5475 102.882 58.5475 102.796 58.5326C102.728 58.5178 102.676 58.5029 102.591 58.5029H59.2228C59.1543 58.5029 59.103 58.5326 59.0345 58.5326C58.9317 58.5475 58.829 58.5475 58.7434 58.5772C58.6578 58.6069 58.6064 58.6514 58.538 58.696C58.4695 58.7405 58.401 58.7702 58.3325 58.8147C58.2469 58.8741 58.1955 58.9632 58.1442 59.0523C58.1099 59.0969 58.0757 59.1266 58.0586 59.1711V59.186C58.0243 59.2602 58.0243 59.3344 58.0072 59.4087C57.9901 59.4829 57.9558 59.5423 57.9558 59.6166V59.6314V76.3805V76.3954C57.9387 76.4251 57.973 76.4993 57.9901 76.5587ZM65.2666 75.2372L80.9325 69.1938L96.5984 75.2372H65.2666ZM101.358 74.6284L84.0999 67.9614L101.358 61.2944V74.6284ZM96.5984 60.7154L80.9325 66.7587L65.2666 60.7154H96.5984ZM60.5069 61.3093L77.7651 67.9763L60.5069 74.6432V61.3093Z" fill="#F26633"/>
<path id="Vector_11" d="M59.6843 47.2031C58.7255 47.2031 57.9551 47.8713 57.9551 48.688C57.9551 49.5195 58.7255 50.1877 59.6843 50.1877C60.6431 50.1877 61.4136 49.5195 61.4136 48.688C61.4136 47.8713 60.6431 47.2031 59.6843 47.2031Z" fill="#F26633"/>
<path id="Vector_12" d="M65.8816 47.2031C64.9228 47.2031 64.1523 47.8713 64.1523 48.688C64.1523 49.5195 64.9228 50.1877 65.8816 50.1877C66.8404 50.1877 67.6108 49.5195 67.6108 48.688C67.6108 47.8713 66.8404 47.2031 65.8816 47.2031Z" fill="#F26633"/>
<path id="Vector_13" d="M72.0808 47.2031C71.122 47.2031 70.3516 47.8713 70.3516 48.688C70.3516 49.5195 71.122 50.1877 72.0808 50.1877C73.0396 50.1877 73.81 49.5195 73.81 48.688C73.81 47.8713 73.0396 47.2031 72.0808 47.2031Z" fill="#F26633"/>
</g>
</g>
</svg>
