<svg width="24" height="13" viewBox="0 0 24 13" fill="none" xmlns="http://www.w3.org/2000/svg">
<g id="Group 914">
<path id="Vector" d="M2.51124 1.3208H19.4358C19.6309 1.3208 19.8181 1.39833 19.9561 1.53633C20.0941 1.67432 20.1716 1.86149 20.1716 2.05665V10.8868C20.1716 11.082 20.0941 11.2692 19.9561 11.4072C19.8181 11.5452 19.6309 11.6227 19.4358 11.6227H2.51124C2.31608 11.6227 2.12891 11.5452 1.99092 11.4072C1.85292 11.2692 1.77539 11.082 1.77539 10.8868V2.05665C1.77539 1.86149 1.85292 1.67432 1.99092 1.53633C2.12891 1.39833 2.31608 1.3208 2.51124 1.3208ZM20.9075 4.2642H22.3792V8.67929H20.9075V4.2642Z" fill="black" stroke="black" stroke-width="2"/>
<path id="Vector_2" d="M2.51124 1.8208H19.4358C19.4983 1.8208 19.5583 1.84565 19.6025 1.88988C19.6468 1.93411 19.6716 1.9941 19.6716 2.05665V10.8868C19.6716 10.9494 19.6468 11.0094 19.6025 11.0536C19.5583 11.0978 19.4983 11.1227 19.4358 11.1227H2.51124C2.44869 11.1227 2.3887 11.0978 2.34447 11.0536C2.30024 11.0094 2.27539 10.9494 2.27539 10.8868V2.05665C2.27539 1.9941 2.30024 1.93411 2.34447 1.88988C2.3887 1.84565 2.44869 1.8208 2.51124 1.8208ZM21.4075 4.7642H21.8792V8.17929H21.4075V4.7642Z" stroke="white"/>
</g>
</svg>
