<svg width="113" height="98" viewBox="0 0 113 98" fill="none" xmlns="http://www.w3.org/2000/svg">
<g id="seo_3867185 1" clip-path="url(#clip0_1014_1074)">
<g id="Group">
<g id="Group_2">
<path id="Vector" d="M106.886 0H6.11414C2.7429 0 0 2.3788 0 5.30253V80.7103C0 83.0567 1.76717 85.0506 4.20748 85.7469L0.484885 88.9754C-0.161555 89.536 -0.161555 90.445 0.484885 91.0054C1.13132 91.5661 2.17944 91.5661 2.82566 91.0054L8.7895 85.8333L14.0288 90.3771L8.06493 95.5492C7.41849 96.1099 7.41849 97.0189 8.06493 97.5793C8.38804 97.8595 8.81179 97.9998 9.23532 97.9998C9.65885 97.9998 10.0826 97.8597 10.4057 97.5793L17.5399 91.3921C18.1676 90.8477 18.184 89.9761 17.5929 89.4128L20.3852 86.9909C20.7004 87.2395 21.0981 87.3655 21.4971 87.3655C21.9207 87.3655 22.3444 87.2254 22.6675 86.945L23.7432 86.012H68.4224C69.3365 86.012 70.0777 85.3693 70.0777 84.5765C70.0777 83.7837 69.3365 83.1409 68.4224 83.1409H52.7322C60.749 79.2556 66.1822 71.8219 66.1822 63.3074C66.1822 59.3222 64.9854 55.445 62.7165 52.0198L66.2966 48.9154L74.7113 56.3844C75.0205 56.6589 75.4434 56.8145 75.8857 56.8168C76.3251 56.8109 76.753 56.6675 77.0658 56.3963L85.3444 49.2167C85.9908 48.656 85.9908 47.7471 85.3444 47.1866C84.6979 46.6258 83.6498 46.626 83.0036 47.1866L75.9091 53.3394L67.4943 45.8703C67.1851 45.5958 66.7623 45.4402 66.32 45.4379C66.3167 45.4379 66.3136 45.4379 66.3103 45.4379C65.8715 45.4379 65.4504 45.5891 65.1399 45.8583L43.8107 64.3542L39.2042 60.2304L65.8644 37.1093L74.279 44.4085C74.5893 44.6779 75.0104 44.8291 75.4493 44.8291C75.8883 44.8291 76.3094 44.6779 76.6197 44.4085L90.2195 32.6141C90.8659 32.0537 90.8659 31.1449 90.2197 30.5842L87.7767 28.4646L102.159 26.2227L99.574 38.6947L97.355 36.7705C96.7086 36.2099 95.6605 36.2099 95.0142 36.7705L88.4638 42.4514C87.8173 43.012 87.8173 43.921 88.4638 44.4815C89.11 45.0421 90.1581 45.0421 90.8046 44.4815L96.1846 39.8158L99.4722 42.6669C99.9081 43.045 100.55 43.1816 101.138 43.0218C101.726 42.862 102.163 42.4319 102.272 41.9059L105.838 24.6985C105.934 24.2359 105.763 23.7617 105.38 23.4295C104.996 23.0972 104.45 22.9492 103.916 23.0315L84.0751 26.1247C83.4686 26.2192 82.9729 26.5982 82.7886 27.1081C82.6043 27.618 82.7617 28.1744 83.1973 28.5525L86.7085 31.5989L75.4496 41.3633L67.035 34.064C66.7247 33.7947 66.3036 33.6435 65.8647 33.6435C65.4257 33.6435 65.0046 33.7947 64.6943 34.064L53.4399 43.8244C49.3874 41.7155 44.7716 40.6032 40.0027 40.6032C25.5671 40.6032 13.8229 50.7885 13.8229 63.3078C13.8229 67.3622 15.0559 71.1712 17.2118 74.4693L12.7472 78.3414C12.1195 78.8858 12.1031 79.7575 12.6942 80.3208L9.90162 82.7426C9.2521 82.23 8.24679 82.2442 7.61933 82.7886L7.21236 83.1415H6.11348C4.56789 83.1415 3.31055 82.0511 3.31055 80.7107V18.7253H16.5527C17.4669 18.7253 18.208 18.0825 18.208 17.2897C18.208 16.4969 17.4669 15.8542 16.5527 15.8542H3.31055V5.30253C3.31055 3.96192 4.56833 2.87109 6.11414 2.87109H106.886C108.432 2.87109 109.689 3.96192 109.689 5.30253V15.8542H24.2773C23.3632 15.8542 22.6221 16.4969 22.6221 17.2897C22.6221 18.0825 23.3632 18.7253 24.2773 18.7253H109.689V80.7103C109.689 82.0507 108.432 83.1411 106.887 83.1411H76.147C75.2328 83.1411 74.4917 83.7839 74.4917 84.5767C74.4917 85.3695 75.2328 86.0122 76.147 86.0122H106.887C110.258 86.0122 113 83.6338 113 80.7103V5.30253C113 2.3788 110.257 0 106.886 0ZM18.0418 84.9633L15.255 87.3804L12.2453 84.77L15.0321 82.3531L18.0418 84.9633ZM27.0542 83.1411L27.1326 83.0732C27.1791 83.0962 27.2259 83.1185 27.2727 83.1411H27.0542ZM35.6928 61.2133L42.603 67.3995C42.9115 67.6759 43.3351 67.8332 43.7787 67.8361H43.7919C44.2307 67.8361 44.6518 67.6849 44.9623 67.4158L54.867 58.8268C55.4442 60.2574 55.7364 61.7574 55.7364 63.3074C55.7364 70.8316 48.6783 76.9528 40.0024 76.9528C31.3266 76.9528 24.2685 70.8316 24.2685 63.3074C24.2685 55.7832 31.3266 49.6621 40.0024 49.6621C41.9393 49.6621 43.8586 49.976 45.654 50.5762L35.7111 59.1993C35.0722 59.7538 35.0638 60.6503 35.6928 61.2133ZM40.0024 43.4741C43.8877 43.4741 47.6558 44.3194 51.0162 45.9262L48.1731 48.3919C45.631 47.3424 42.8314 46.7914 40.0024 46.7914C29.5012 46.7914 20.958 54.2005 20.958 63.3078C20.958 72.4151 29.5012 79.8242 40.0024 79.8242C50.5037 79.8242 59.0469 72.4151 59.0469 63.3078C59.0469 61.0058 58.4841 58.7148 57.413 56.6193L60.2789 54.1341C61.9783 56.9524 62.8717 60.0891 62.8717 63.3078C62.8717 74.244 52.6125 83.1413 40.0024 83.1413C27.3923 83.1413 17.1332 74.2438 17.1332 63.3076C17.1332 52.3714 27.3923 43.4741 40.0024 43.4741ZM19.0648 76.9221C20.5554 78.6421 22.3208 80.1732 24.304 81.466L21.4976 83.8999L16.2583 79.3561L19.0648 76.9221Z" fill="#F26633"/>
<path id="Vector_2" d="M99.5285 9.3632C99.5285 8.08173 98.3307 7.04297 96.8531 7.04297C95.3755 7.04297 94.1777 8.08173 94.1777 9.3632C94.1777 10.6447 95.3755 11.6834 96.8531 11.6834C98.3307 11.6834 99.5285 10.6445 99.5285 9.3632Z" fill="#F26633"/>
<path id="Vector_3" d="M90.3878 9.3632C90.3878 8.08173 89.1901 7.04297 87.7125 7.04297C86.2349 7.04297 85.0371 8.08173 85.0371 9.3632C85.0371 10.6447 86.2349 11.6834 87.7125 11.6834C89.1901 11.6834 90.3878 10.6445 90.3878 9.3632Z" fill="#F26633"/>
<path id="Vector_4" d="M81.2472 9.3632C81.2472 8.08173 80.0495 7.04297 78.5718 7.04297C77.0942 7.04297 75.8965 8.08173 75.8965 9.3632C75.8965 10.6447 77.0942 11.6834 78.5718 11.6834C80.0495 11.6834 81.2472 10.6445 81.2472 9.3632Z" fill="#F26633"/>
<path id="Vector_5" d="M8.79004 23.0088C7.87589 23.0088 7.13477 23.6515 7.13477 24.4443V32.1783C7.13477 32.9711 7.87589 33.6138 8.79004 33.6138H40.0025C40.9167 33.6138 41.6578 32.9711 41.6578 32.1783V24.4443C41.6578 23.6515 40.9167 23.0088 40.0025 23.0088H8.79004ZM38.3473 30.7427H10.4453V25.8799H38.3473V30.7427Z" fill="#F26633"/>
<path id="Vector_6" d="M85.166 72.2021C85.166 72.995 85.9071 73.6377 86.8213 73.6377H102.427C103.342 73.6377 104.083 72.995 104.083 72.2021C104.083 71.4093 103.342 70.7666 102.427 70.7666H86.8213C85.9071 70.7666 85.166 71.4093 85.166 72.2021Z" fill="#F26633"/>
<path id="Vector_7" d="M86.8213 79.8252H102.427C103.342 79.8252 104.083 79.1825 104.083 78.3896C104.083 77.5968 103.342 76.9541 102.427 76.9541H86.8213C85.9071 76.9541 85.166 77.5968 85.166 78.3896C85.166 79.1825 85.9071 79.8252 86.8213 79.8252Z" fill="#F26633"/>
<path id="Vector_8" d="M102.427 67.4507C103.341 67.4507 104.082 66.8079 104.082 66.0151C104.082 65.2223 103.341 64.5796 102.427 64.5796H93.5088C92.5946 64.5796 91.8535 65.2223 91.8535 66.0151C91.8535 66.8079 92.5946 67.4507 93.5088 67.4507H102.427Z" fill="#F26633"/>
</g>
</g>
</g>
<defs>
<clipPath id="clip0_1014_1074">
<rect width="113" height="98" fill="white"/>
</clipPath>
</defs>
</svg>
