<svg width="113" height="98" viewBox="0 0 113 98" fill="none" xmlns="http://www.w3.org/2000/svg">
<g id="social-media_9059777 1">
<g id="Group">
<g id="Group_2">
<g id="Group_3">
<path id="Vector" d="M85.8098 39.2957C75.8119 39.2957 67.668 32.2328 67.668 23.5621C67.668 14.8914 75.8119 7.84766 85.8098 7.84766C95.8076 7.84766 103.952 14.9105 103.952 23.5812C103.952 32.252 95.8076 39.2957 85.8098 39.2957ZM85.8098 9.72344C77.0037 9.72344 69.8309 15.9441 69.8309 23.5812C69.8309 31.2184 77.0037 37.4391 85.8098 37.4391C94.6158 37.4391 101.789 31.2184 101.789 23.5812C101.789 15.9441 94.6379 9.72344 85.8098 9.72344Z" fill="#F26633"/>
</g>
<g id="Group_4">
<path id="Vector_2" d="M81.2416 31.1611C81.065 31.1611 80.8885 31.1229 80.7119 31.0463C80.3809 30.874 80.1602 30.5678 80.1602 30.2232V16.9397C80.1602 16.5951 80.3809 16.2889 80.7119 16.1166C81.043 15.9443 81.4623 15.9635 81.7934 16.1358L94.3734 22.7775C94.7045 22.9498 94.8811 23.2561 94.8811 23.5815C94.8811 23.9068 94.6824 24.2131 94.3734 24.3854L81.7934 31.0272C81.6389 31.1037 81.4402 31.1611 81.2416 31.1611ZM82.323 18.5857V28.5389L91.7471 23.5623L82.323 18.5857Z" fill="#F26633"/>
</g>
<g id="Group_5">
<path id="Vector_3" d="M85.81 78.2469C83.3822 78.2469 81.418 76.5434 81.418 74.4379C81.418 72.3324 83.3822 70.6289 85.81 70.6289C88.2377 70.6289 90.202 72.3324 90.202 74.4379C90.224 76.5242 88.2377 78.2469 85.81 78.2469ZM85.81 72.4855C84.574 72.4855 83.5588 73.366 83.5588 74.4379C83.5588 75.5098 84.574 76.3902 85.81 76.3902C87.0459 76.3902 88.0611 75.5098 88.0611 74.4379C88.0611 73.3469 87.068 72.4855 85.81 72.4855Z" fill="#F26633"/>
</g>
<g id="Group_6">
<path id="Vector_4" d="M85.8098 90.1522C75.8119 90.1522 67.668 83.0894 67.668 74.4186C67.668 65.7479 75.8119 58.6851 85.8098 58.6851C95.8076 58.6851 103.952 65.7479 103.952 74.4186C103.952 83.0894 95.8076 90.1522 85.8098 90.1522ZM85.8098 60.58C77.0037 60.58 69.8309 66.8007 69.8309 74.4378C69.8309 82.0749 77.0037 88.2956 85.8098 88.2956C94.6158 88.2956 101.789 82.0749 101.789 74.4378C101.789 66.8007 94.6379 60.58 85.8098 60.58Z" fill="#F26633"/>
</g>
<g id="Group_7">
<path id="Vector_5" d="M92.9607 82.2665H78.6813C77.6439 82.2665 76.7832 81.52 76.7832 80.6204V68.2364C76.7832 67.3368 77.6439 66.5903 78.6813 66.5903H92.9607C93.9981 66.5903 94.8588 67.3368 94.8588 68.2364V80.6204C94.8588 81.52 93.9981 82.2665 92.9607 82.2665ZM78.9461 80.3907H92.6959V68.447H78.924V80.3907H78.9461Z" fill="#F26633"/>
</g>
<g id="Group_8">
<g id="Group_9">
<path id="Vector_6" d="M30.214 83.1279C27.9187 83.1279 24.564 82.7834 22.1804 81.099C21.7169 80.7736 21.6507 80.1803 22.0259 79.7783C22.4011 79.3764 23.0853 79.3189 23.5487 79.6443C26.6607 81.8647 32.3769 81.1182 32.421 81.1182H32.4651C34.606 80.8885 35.3564 78.3045 35.6433 76.1607C35.7095 75.6631 35.5329 75.2037 35.1577 74.8209C34.7825 74.4572 34.2528 74.2467 33.679 74.2467H31.3616C31.0526 74.2467 30.7437 74.1318 30.545 73.9213C30.3464 73.7107 30.2581 73.4428 30.3023 73.1748L31.1189 68.5236C31.1851 68.1982 31.0085 67.9686 30.8982 67.8537C30.7878 67.7389 30.545 67.5666 30.1698 67.5666C29.7505 67.5666 29.3753 67.7963 29.2429 68.16C27.1683 73.4811 23.4825 74.9549 23.328 75.0123C22.7763 75.2229 22.1362 75.0123 21.9155 74.5338C21.6728 74.0553 21.9155 73.5193 22.4673 73.3088C22.5997 73.2514 25.4689 72.0264 27.2124 67.5666C27.6538 66.4564 28.8456 65.71 30.1698 65.71C31.0747 65.71 31.9355 66.0545 32.5314 66.6479C33.1273 67.2412 33.3921 68.0451 33.2597 68.8299L32.6417 72.39H33.7011C34.8708 72.39 35.9964 72.8303 36.7909 73.5768C37.5634 74.3424 37.9607 75.3568 37.8282 76.3521C37.1882 81.4244 34.7384 82.7451 32.7962 82.9557C32.5755 83.0131 31.5823 83.1279 30.214 83.1279Z" fill="#F26633"/>
</g>
<g id="Group_10">
<path id="Vector_7" d="M22.3572 82.3047H18.1639C17.2811 82.3047 16.5527 81.673 16.5527 80.9074V73.6531C16.5527 72.8875 17.2811 72.2559 18.1639 72.2559H22.3572C23.24 72.2559 23.9684 72.8875 23.9684 73.6531V80.9074C23.9463 81.673 23.24 82.3047 22.3572 82.3047ZM18.6936 80.4289H21.7834V74.1125H18.6936V80.4289Z" fill="#F26633"/>
</g>
</g>
<g id="Group_11">
<path id="Vector_8" d="M27.1906 90.1522C17.1928 90.1522 9.04883 83.0894 9.04883 74.4186C9.04883 65.7479 17.1928 58.6851 27.1906 58.6851C37.1885 58.6851 45.3324 65.7479 45.3324 74.4186C45.3324 83.0894 37.1885 90.1522 27.1906 90.1522ZM27.1906 60.58C18.3846 60.58 11.2117 66.8007 11.2117 74.4378C11.2117 82.0749 18.3846 88.2956 27.1906 88.2956C35.9967 88.2956 43.1695 82.0749 43.1695 74.4378C43.1695 66.8007 35.9967 60.58 27.1906 60.58Z" fill="#F26633"/>
</g>
<g id="Group_12">
<path id="Vector_9" d="M27.1906 39.2957C17.1928 39.2957 9.04883 32.2328 9.04883 23.5621C9.04883 14.8914 17.1928 7.84766 27.1906 7.84766C37.1885 7.84766 45.3324 14.9105 45.3324 23.5812C45.3324 32.252 37.1885 39.2957 27.1906 39.2957ZM27.1906 9.72344C18.3846 9.72344 11.2117 15.9441 11.2117 23.5812C11.2117 31.2184 18.3846 37.4391 27.1906 37.4391C35.9967 37.4391 43.1695 31.2184 43.1695 23.5812C43.1695 15.9441 35.9967 9.72344 27.1906 9.72344Z" fill="#F26633"/>
</g>
<g id="Group_13">
<g id="Group_14">
<path id="Vector_10" d="M25.7768 31.9459C25.1809 31.9459 24.6953 31.5248 24.6953 31.008V18.7771C24.6953 16.7865 26.5492 15.1787 28.8445 15.1787H31.4047C32.0006 15.1787 32.4861 15.5998 32.4861 16.1166C32.4861 16.6334 32.0006 17.0545 31.4047 17.0545H28.8445C27.741 17.0545 26.8582 17.8201 26.8582 18.7771V31.008C26.8582 31.5248 26.3727 31.9459 25.7768 31.9459Z" fill="#F26633"/>
</g>
<g id="Group_15">
<path id="Vector_11" d="M28.5805 24.5003H22.9525C22.3566 24.5003 21.8711 24.0792 21.8711 23.5624C21.8711 23.0456 22.3566 22.6245 22.9525 22.6245H28.5805C29.1764 22.6245 29.6619 23.0456 29.6619 23.5624C29.6619 24.0983 29.1764 24.5003 28.5805 24.5003Z" fill="#F26633"/>
</g>
</g>
<g id="Group_16">
<path id="Vector_12" d="M56.5007 85.9033C51.27 85.9033 46.0393 85.0612 41.0735 83.3959C40.5218 83.2045 40.2348 82.6686 40.4555 82.1901C40.6762 81.7115 41.2942 81.4627 41.846 81.6541C51.2921 84.8315 61.7093 84.8315 71.1553 81.6541C71.7071 81.4627 72.3251 81.7115 72.5458 82.1901C72.7665 82.6686 72.4796 83.2045 71.9278 83.3959C66.962 85.0612 61.7313 85.9033 56.5007 85.9033Z" fill="#F26633"/>
</g>
<g id="Group_17">
<path id="Vector_13" d="M17.8553 62.9727C17.4139 62.9727 17.0167 62.743 16.8401 62.3793C12.9778 53.7469 12.9778 44.2531 16.8401 35.6207C17.0608 35.1422 17.6788 34.8934 18.2305 35.0848C18.7823 35.2762 19.0692 35.8121 18.8485 36.2906C15.1848 44.4828 15.1848 53.5172 18.8485 61.7094C19.0692 62.1879 18.7823 62.7239 18.2305 62.9153C18.1202 62.9535 17.9877 62.9727 17.8553 62.9727Z" fill="#F26633"/>
</g>
<g id="Group_18">
<path id="Vector_14" d="M71.5292 16.4228C71.3968 16.4228 71.2643 16.4036 71.1319 16.3653C61.6858 13.188 51.2686 13.188 41.8225 16.3653C41.2708 16.5567 40.6528 16.3079 40.4321 15.8294C40.2114 15.3509 40.4983 14.8149 41.0501 14.6235C51.0038 11.2739 61.9507 11.2739 71.9044 14.6235C72.4561 14.8149 72.743 15.3509 72.5223 15.8294C72.3899 16.1931 71.9706 16.4228 71.5292 16.4228Z" fill="#F26633"/>
</g>
<g id="Group_19">
<path id="Vector_15" d="M95.1446 62.9727C95.0122 62.9727 94.8798 62.9535 94.7473 62.9153C94.1956 62.7239 93.9087 62.1879 94.1294 61.7094C97.793 53.5172 97.793 44.4828 94.1294 36.2906C93.9087 35.8121 94.1956 35.2762 94.7473 35.0848C95.2991 34.8934 95.9171 35.1422 96.1378 35.6207C100 44.2531 100 53.7469 96.1378 62.3793C95.9833 62.7621 95.586 62.9727 95.1446 62.9727Z" fill="#F26633"/>
</g>
</g>
<g id="Group_20">
<path id="Vector_16" d="M58.9496 64.7334H54.0721C53.5424 64.7334 53.0789 64.3889 53.0127 63.9295L52.5713 61.3264C51.4236 61.0584 50.298 60.6564 49.2607 60.1397L46.8109 61.7092C46.3916 61.9771 45.7736 61.958 45.3984 61.6135L41.9334 58.6275C41.5582 58.3021 41.5141 57.7854 41.823 57.4025L43.6328 55.2779C43.0369 54.3783 42.5734 53.4213 42.2645 52.4068L39.2629 52.024C38.7332 51.9475 38.3359 51.5646 38.3359 51.1053V46.8752C38.3359 46.4158 38.7332 46.0139 39.2629 45.9564L42.2645 45.5736C42.5955 44.5783 43.0369 43.6213 43.6328 42.7025L41.823 40.5971C41.5141 40.2334 41.5361 39.6975 41.9334 39.3721L45.3984 36.367C45.7736 36.0416 46.3695 36.0033 46.8109 36.2713L49.2607 37.8408C50.298 37.324 51.4016 36.9221 52.5713 36.6541L53.0127 34.051C53.101 33.5916 53.5424 33.2471 54.0721 33.2471H58.9496C59.4793 33.2471 59.9428 33.5916 60.009 34.051L60.4504 36.6541C61.598 36.9221 62.7016 37.324 63.7609 37.8408L66.2107 36.2713C66.6301 36.0033 67.248 36.0225 67.6232 36.367L71.0883 39.3721C71.4635 39.6975 71.5076 40.2143 71.1986 40.5971L69.3889 42.7025C69.9848 43.6021 70.4482 44.5592 70.7572 45.5736L73.7588 45.9564C74.2885 46.033 74.6857 46.4158 74.6857 46.8752V51.1053C74.6857 51.5646 74.2885 51.9666 73.7588 52.024L70.7572 52.4068C70.4482 53.4021 69.9848 54.3592 69.3889 55.2779L71.1986 57.4025C71.5076 57.7662 71.4855 58.3021 71.0883 58.6275L67.6012 61.6326C67.226 61.958 66.6301 61.9963 66.1887 61.7283L63.7389 60.1588C62.7016 60.6756 61.598 61.0775 60.4283 61.3455L59.9869 63.9486C59.9428 64.3889 59.4793 64.7334 58.9496 64.7334ZM54.999 62.8576H58.0227L58.442 60.4268C58.5082 60.0439 58.8393 59.7377 59.2807 59.642C60.6932 59.374 62.0395 58.8764 63.2754 58.2064C63.6506 57.9959 64.1361 58.015 64.4893 58.2447L66.7625 59.7186L68.9033 57.8619L67.2039 55.8904C66.9391 55.5842 66.917 55.1631 67.1598 54.8377C67.9322 53.7658 68.5061 52.5982 68.815 51.3732C68.9033 50.9904 69.2785 50.7033 69.7199 50.6459L72.5229 50.2822V47.66L69.7199 47.2963C69.2785 47.2389 68.9254 46.9518 68.815 46.5689C68.5061 45.3439 67.9322 44.1764 67.1598 43.1045C66.917 42.7791 66.9391 42.358 67.2039 42.0518L68.9033 40.0803L66.7625 38.2236L64.4893 39.6975C64.1361 39.9271 63.6506 39.9463 63.2754 39.7357C62.0395 39.0658 60.6932 38.5682 59.2807 38.3002C58.8393 38.2236 58.5082 37.8982 58.442 37.5154L58.0227 35.0846H54.999L54.5797 37.5154C54.5135 37.8982 54.1824 38.2045 53.741 38.3002C52.3285 38.5682 50.9822 39.0658 49.7463 39.7357C49.3711 39.9463 48.8855 39.9271 48.5324 39.6975L46.2592 38.2236L44.1184 40.0803L45.8178 42.0518C46.0826 42.358 46.1047 42.7791 45.8619 43.1045C45.0895 44.1764 44.5156 45.3439 44.2066 46.5689C44.1184 46.9518 43.7432 47.2389 43.3018 47.2963L40.4988 47.66V50.2822L43.3018 50.6459C43.7432 50.7033 44.0963 50.9904 44.2066 51.3732C44.5156 52.5982 45.0895 53.7658 45.8619 54.8377C46.1047 55.1631 46.0826 55.5842 45.8178 55.8904L44.1184 57.8619L46.2592 59.7186L48.5324 58.2447C48.8855 58.015 49.3711 57.9959 49.7463 58.2064C50.9822 58.8764 52.3285 59.374 53.741 59.642C54.1824 59.7186 54.5135 60.0439 54.5797 60.4268L54.999 62.8576Z" fill="#F26633"/>
</g>
<g id="Group_21">
<path id="Vector_17" d="M56.4992 56.5033C51.732 56.5033 47.8477 53.1346 47.8477 49.0002C47.8477 44.8658 51.732 41.4971 56.4992 41.4971C61.2664 41.4971 65.1508 44.8658 65.1508 49.0002C65.1508 53.1346 61.2664 56.5033 56.4992 56.5033ZM56.4992 43.3729C52.9238 43.3729 50.0105 45.8994 50.0105 49.0002C50.0105 52.101 52.9238 54.6275 56.4992 54.6275C60.0746 54.6275 62.9879 52.101 62.9879 49.0002C62.9879 45.8994 60.0746 43.3729 56.4992 43.3729Z" fill="#F26633"/>
</g>
</g>
</g>
</svg>
