<svg width="58" height="58" viewBox="0 0 58 58" fill="none" xmlns="http://www.w3.org/2000/svg">
<g id="Link &#226;&#134;&#146; SVG" clip-path="url(#clip0_1852_869)">
<path id="Vector" d="M28.7 21.5332C24.8202 21.5332 21.6641 24.6895 21.6641 28.5691C21.6641 32.4487 24.8203 35.605 28.7 35.605C32.5796 35.605 35.7357 32.4486 35.7357 28.5691C35.7357 24.6895 32.5795 21.5332 28.7 21.5332Z" fill="#110D3C"/>
<path id="Vector_2" d="M42.745 55.1614C42.266 51.8126 40.5932 48.7366 38.0353 46.4997C35.4517 44.2404 32.1366 42.9961 28.7007 42.9961C25.2648 42.9961 21.9495 44.2404 19.3659 46.4997C16.8077 48.7366 15.1352 51.8127 14.6561 55.1614C14.5875 55.6408 14.7303 56.1262 15.0475 56.4919C15.3648 56.8578 15.825 57.068 16.3092 57.068H41.0919C41.5761 57.068 42.0363 56.8578 42.3536 56.4919C42.6708 56.1262 42.8136 55.6407 42.745 55.1614Z" fill="#110D3C"/>
<path id="Vector_3" d="M28.7 10.8008C18.9026 10.8008 10.932 18.7715 10.932 28.5687C10.932 34.5185 13.8721 39.7943 18.3752 43.0207C19.3954 42.2766 20.4887 41.6492 21.6344 41.1444C17.2438 38.6678 14.2718 33.9591 14.2718 28.5687C14.2718 20.613 20.7443 14.1406 28.7 14.1406C36.6557 14.1406 43.1281 20.613 43.1281 28.5687C43.1281 33.9592 40.1562 38.6678 35.7655 41.1444C36.9111 41.6491 38.0044 42.2766 39.0246 43.0207C43.5279 39.7944 46.4678 34.5186 46.4678 28.5687C46.4678 18.7714 38.4972 10.8008 28.7 10.8008Z" fill="#110D3C"/>
<path id="Vector_4" d="M48.8521 8.41584C43.469 3.03291 36.3122 0.0683594 28.7 0.0683594C21.0874 0.0683594 13.9305 3.03291 8.54743 8.41572C3.1645 13.7989 0.199951 20.9559 0.199951 28.5683C0.199951 34.0219 1.74574 39.3229 4.66999 43.8978C6.62591 46.9578 9.13279 49.6012 12.0498 51.7027C12.4071 50.6183 12.8696 49.573 13.4292 48.5812C7.23232 43.8825 3.53979 36.5803 3.53979 28.5683C3.53979 14.6949 14.8266 3.4082 28.7 3.4082C42.5734 3.4082 53.8601 14.6949 53.8601 28.5683C53.8601 36.5801 50.1676 43.8824 43.9707 48.5812C44.5301 49.5732 44.9928 50.6183 45.3501 51.7026C48.267 49.6012 50.7739 46.9579 52.7298 43.8979C55.6541 39.3229 57.2 34.022 57.2 28.5685C57.2 20.9559 54.2353 13.7989 48.8521 8.41584Z" fill="#110D3C"/>
</g>
<defs>
<clipPath id="clip0_1852_869">
<rect width="57" height="57" fill="white" transform="translate(0.199951 0.0683594)"/>
</clipPath>
</defs>
</svg>
