<svg width="58" height="58" viewBox="0 0 58 58" fill="none" xmlns="http://www.w3.org/2000/svg">
<g id="Link &#226;&#134;&#146; SVG" clip-path="url(#clip0_1852_926)">
<path id="Vector" d="M52.905 48.9583L56.3156 43.8424C56.5073 43.554 56.526 43.1838 56.3626 42.8775C56.1991 42.5722 55.8805 42.3814 55.534 42.3814H49.8966V38.7256C51.7362 35.236 52.7153 31.3143 52.7153 27.3485C52.7153 13.878 41.7572 2.91992 28.2867 2.91992C14.8162 2.91992 3.8582 13.878 3.8582 27.3485C3.8582 31.3143 4.83725 35.236 6.67687 38.7256V42.3814H1.03952C0.692803 42.3814 0.374271 42.572 0.210876 42.8775C0.0473706 43.1838 0.0661984 43.554 0.25789 43.8424L3.66838 48.9583L0.25778 54.0743C0.0660884 54.3627 0.0473707 54.7328 0.210766 55.0391C0.374271 55.3445 0.692803 55.5353 1.03941 55.5353H9.49542C10.015 55.5353 10.435 55.1154 10.435 54.5958V50.8376H46.1382V54.5957C46.1382 55.1153 46.5581 55.5352 47.0777 55.5352H55.5337C55.8804 55.5352 56.1989 55.3445 56.3624 55.0391C56.5259 54.7327 56.5071 54.3626 56.3154 54.0741L52.905 48.9583ZM28.2867 8.55727C38.6482 8.55727 47.078 16.987 47.078 27.3485C47.078 31.024 45.9739 34.6262 43.9558 37.6836H41.6586C43.9445 34.7307 45.1989 31.0786 45.1989 27.3485C45.1989 18.0234 37.6119 10.4364 28.2868 10.4364C18.9618 10.4364 11.3748 18.0234 11.3748 27.3485C11.3748 31.0784 12.6291 34.7305 14.9151 37.6836H12.6179C10.5996 34.6264 9.49577 31.0241 9.49577 27.3485C9.49551 16.987 17.9253 8.55727 28.2867 8.55727ZM28.2867 27.3617C24.661 27.3617 21.7099 30.3119 21.7099 33.9385V37.6836H19.8307V33.9385C19.8307 30.5533 21.8338 27.635 24.7136 26.2848C22.9087 25.1113 21.7099 23.08 21.7099 20.7714C21.7099 17.1457 24.661 14.1946 28.2867 14.1946C31.9125 14.1946 34.8636 17.1457 34.8636 20.7714C34.8636 23.0799 33.6646 25.1112 31.8598 26.2848C34.7397 27.6349 36.7427 30.5533 36.7427 33.9385V37.6836H34.8636V33.9385C34.8636 30.3118 31.9125 27.3617 28.2867 27.3617ZM8.55602 53.6561H2.79458L5.57946 49.4797C5.78986 49.164 5.78986 48.7524 5.57946 48.4368L2.79458 44.2604H6.67687V49.8977C6.67687 50.4173 7.0968 50.8373 7.61639 50.8373H8.55602V53.6561ZM9.49551 48.9583H8.55602V43.321V39.5628H14.4612H42.1123H48.0174V43.321V48.9583H47.078H9.49551ZM48.0174 53.6561V50.8374H48.957C49.4765 50.8374 49.8965 50.4174 49.8965 49.8978V44.2605H53.7788L50.9939 48.4369C50.7835 48.7526 50.7835 49.1641 50.9939 49.4798L53.7788 53.6562L48.0174 53.6561Z" fill="#110D3C"/>
<path id="Vector_2" d="M17.0117 43.3224H20.7698C21.2894 43.3224 21.7094 42.9025 21.7094 42.3829C21.7094 41.8633 21.2894 41.4434 20.7698 41.4434H17.0117C16.492 41.4434 16.0721 41.8633 16.0721 42.3829C16.0721 42.9025 16.492 43.3224 17.0117 43.3224Z" fill="#110D3C"/>
<path id="Vector_3" d="M24.5279 43.3224H30.1653C30.6849 43.3224 31.1049 42.9025 31.1049 42.3829C31.1049 41.8633 30.6849 41.4434 30.1653 41.4434H24.5279C24.0084 41.4434 23.5885 41.8633 23.5885 42.3829C23.5885 42.9025 24.0084 43.3224 24.5279 43.3224Z" fill="#110D3C"/>
<path id="Vector_4" d="M25.4677 45.2012H17.0117C16.492 45.2012 16.0721 45.621 16.0721 46.1406C16.0721 46.6602 16.492 47.0802 17.0117 47.0802H25.4677C25.9873 47.0802 26.4072 46.6602 26.4072 46.1406C26.4072 45.621 25.9873 45.2012 25.4677 45.2012Z" fill="#110D3C"/>
<path id="Vector_5" d="M39.561 45.2012H37.6819C37.1623 45.2012 36.7424 45.621 36.7424 46.1406C36.7424 46.6602 37.1623 47.0802 37.6819 47.0802H39.561C40.0806 47.0802 40.5006 46.6602 40.5006 46.1406C40.5006 45.621 40.0806 45.2012 39.561 45.2012Z" fill="#110D3C"/>
<path id="Vector_6" d="M33.9239 45.2012H29.2262C28.7066 45.2012 28.2866 45.621 28.2866 46.1406C28.2866 46.6602 28.7066 47.0802 29.2262 47.0802H33.9239C34.4435 47.0802 34.8635 46.6602 34.8635 46.1406C34.8635 45.621 34.4435 45.2012 33.9239 45.2012Z" fill="#110D3C"/>
<path id="Vector_7" d="M39.5614 41.4434H34.8636C34.344 41.4434 33.9241 41.8633 33.9241 42.3829C33.9241 42.9025 34.344 43.3224 34.8636 43.3224H39.5614C40.081 43.3224 40.5009 42.9025 40.5009 42.3829C40.5009 41.8633 40.081 41.4434 39.5614 41.4434Z" fill="#110D3C"/>
<path id="Vector_8" d="M28.2863 16.0742C25.696 16.0742 23.5885 18.1816 23.5885 20.7721C23.5885 23.3623 25.6958 25.4698 28.2863 25.4698C30.8766 25.4698 32.9841 23.3625 32.9841 20.7721C32.984 18.1816 30.8766 16.0742 28.2863 16.0742Z" fill="#110D3C"/>
</g>
<defs>
<clipPath id="clip0_1852_926">
<rect width="57" height="57" fill="white" transform="translate(0.0999756 0.728516)"/>
</clipPath>
</defs>
</svg>
