<svg width="55" height="55" viewBox="0 0 55 55" fill="none" xmlns="http://www.w3.org/2000/svg">
<g id="Link &#226;&#134;&#146; SVG" clip-path="url(#clip0_1852_848)">
<path id="Vector" d="M10.157 5.0087H44.5207C44.5207 5.0087 45.0398 0.0996094 40.8389 0.0996094H13.8389C9.41332 0.0996094 10.157 5.0087 10.157 5.0087Z" fill="#110D3C"/>
<path id="Vector_2" d="M10.1575 46.7363V50.4181C10.1575 52.448 11.8094 54.0999 13.8393 54.0999H40.8392C42.8692 54.0999 44.5211 52.448 44.5211 50.4181V46.7363H10.1575ZM28.5506 50.4304H26.0961C24.4908 50.4304 24.4478 47.9758 26.0961 47.9758H28.5506C30.1853 47.9758 30.2147 50.4304 28.5506 50.4304Z" fill="#110D3C"/>
<path id="Vector_3" d="M10.1575 7.46289V44.281H44.5211V7.46289H10.1575ZM18.7692 28.3253H24.9056C26.5403 28.3253 26.5697 30.7799 24.9056 30.7799H18.7692C17.1652 30.7799 17.121 28.3253 18.7692 28.3253ZM33.4965 35.7184H18.7692C17.1652 35.7184 17.121 33.2639 18.7692 33.2639H33.4965C35.1313 33.2639 35.1607 35.7184 33.4965 35.7184ZM35.9278 18.7894L34.7004 23.6985C34.3176 25.1663 32.0324 24.8005 32.3196 23.1032L32.6656 21.7214L29.3692 24.3587C28.8819 24.7502 28.1751 24.7097 27.7344 24.2679L25.9574 22.4909L20.6421 25.6793C19.2 26.4684 17.9985 24.4336 19.3792 23.5746L25.5156 19.8927C25.9991 19.603 26.6165 19.6792 27.0152 20.0768L28.6929 21.7545L31.2396 19.7172H29.8295C28.1971 19.7172 28.169 17.2627 29.8295 17.2627H34.7385C36.1817 17.3964 35.9339 18.7649 35.9278 18.7894Z" fill="#110D3C"/>
</g>
<defs>
<clipPath id="clip0_1852_848">
<rect width="54" height="54" fill="white" transform="translate(0.660034 0.0996094)"/>
</clipPath>
</defs>
</svg>
